<svg width="600" height="100" viewBox="0 0 600 100" fill="none" xmlns="http://www.w3.org/2000/svg">
<g clip-path="url(#clip0_2127_182)">
<path d="M502.525 39.7214H503.21V36.8159H501.298C500.709 36.8159 499.969 36.9315 499.969 37.7297C499.969 38.2891 500.271 38.5502 500.76 38.6547L499.865 39.7214H500.687L501.504 38.6994H502.528V39.7214H502.525ZM496.086 39.7214L498.064 37.5767V39.7214H498.735V36.8159H498.038L496.061 38.9642V36.8159H495.39V39.7214H496.086ZM490.683 39.7214H491.364V38.4756H493.368V39.7214H494.053V36.8159H493.368V37.9535H491.364V36.8159H490.683V39.7214ZM486.583 39.7214H489.541V39.1955H487.246V38.4607H489.235V38.0206H487.246V37.3455H489.493V36.8159H486.583V39.7214ZM483.154 38.2518C483.169 37.9497 483.169 37.6439 483.169 37.3418H484.561V39.7214H485.246V36.8159H482.568V37.3119C482.568 37.6513 482.561 37.9385 482.55 38.1698C482.524 38.6621 482.465 39.2589 481.824 39.1545V39.7401C482.786 39.934 483.114 39.0985 483.154 38.2518ZM477.677 39.7214H479.655C480.207 39.7214 480.904 39.6356 480.904 38.8822C480.904 38.4122 480.572 38.2295 480.182 38.1884V38.1773C480.502 38.1213 480.738 37.9236 480.738 37.5544C480.738 36.8718 480.149 36.8159 479.64 36.8159H477.677V39.7214ZM478.347 39.2328V38.4234H479.482C479.758 38.4234 480.196 38.4122 480.196 38.8188C480.196 39.2253 479.788 39.2328 479.493 39.2328H478.347ZM478.347 38.0243V37.3007H479.456C479.688 37.3007 480.056 37.3007 480.056 37.6402C480.056 38.0094 479.736 38.0206 479.463 38.0206H478.347V38.0243ZM472.889 39.7214H473.585L473.931 39.0165H475.607L475.953 39.7214H476.682L475.239 36.8159H474.333L472.892 39.7214H472.889ZM474.152 38.5279L474.767 37.2821L475.386 38.5279H474.152ZM469.415 39.7214H470.093V38.7405H471.183C471.835 38.7405 472.472 38.5652 472.472 37.7446C472.472 36.9725 471.813 36.8159 471.224 36.8159H469.415V39.7214ZM470.089 38.2481V37.3082H471.084C471.378 37.3082 471.765 37.3492 471.765 37.7558C471.765 38.1996 471.412 38.2444 471.073 38.2444H470.089V38.2481ZM464.848 39.7214H465.533V37.3418H467.397V39.7214H468.078V36.8159H464.848V39.7214ZM461.463 39.7624C462.004 39.7624 462.248 39.52 462.524 39.0538L463.857 36.8159H463.132L462.225 38.3749L461.073 36.8159H460.247L461.853 38.9344C461.662 39.2552 461.371 39.2813 461.039 39.1955V39.7139C461.179 39.7512 461.323 39.7624 461.467 39.7624H461.463ZM457.198 39.7214H457.883V36.8159H455.971C455.382 36.8159 454.641 36.9315 454.641 37.7297C454.641 38.2891 454.943 38.5502 455.433 38.6547L454.538 39.7214H455.36L456.177 38.6994H457.201V39.7214H457.198ZM456.078 38.2369C455.746 38.2369 455.352 38.1996 455.352 37.7558C455.36 37.3455 455.794 37.3306 456.082 37.3306H457.198V38.2407H456.078V38.2369ZM449.971 39.7214H450.667L451.013 39.0165H452.689L453.035 39.7214H453.765L452.321 36.8159H451.415L449.975 39.7214H449.971ZM451.231 38.5279L451.846 37.2821L452.465 38.5279H451.231ZM446.56 38.4682H447.065L448.332 39.7214H449.238L447.617 38.1623L449.186 36.8159H448.317L447.017 37.9609H446.56V36.8159H445.875V39.7214H446.56V38.4682ZM443.021 39.7848C443.555 39.7848 444.332 39.6655 444.612 39.0985C444.7 38.9195 444.7 38.8262 444.722 38.636H444.044C444.044 38.7367 444.026 38.8151 443.971 38.9008C443.787 39.1918 443.341 39.2626 443.039 39.2626C442.737 39.2626 442.358 39.2141 442.114 38.9904C441.834 38.7293 441.783 38.2145 441.904 37.8453C441.993 37.5693 442.21 37.4238 442.461 37.3418C442.608 37.2933 442.792 37.2709 443.013 37.2709C443.267 37.2709 443.551 37.3119 443.772 37.4611C443.93 37.5656 444.03 37.6924 444.03 37.8975H444.707C444.707 37.5581 444.549 37.2933 444.295 37.0993C443.934 36.8233 443.437 36.745 443.006 36.745C442.693 36.745 442.416 36.7823 442.184 36.8532C441.783 36.9762 441.426 37.2075 441.249 37.629C441.009 38.2034 441.127 38.9792 441.602 39.3745C441.989 39.699 442.545 39.7848 443.024 39.7848H443.021ZM437.127 39.7214H437.805V38.7405H438.895C439.518 38.7405 440.184 38.5689 440.184 37.7707C440.184 36.9725 439.554 36.8159 438.936 36.8159H437.127V39.7214ZM437.805 38.2481V37.3082H438.799C439.094 37.3082 439.481 37.3492 439.481 37.7558C439.481 38.2034 439.12 38.2444 438.788 38.2444H437.805V38.2481ZM433.028 39.7214H435.985V39.1955H433.691V38.4607H435.68V38.0206H433.691V37.3455H435.937V36.8159H433.028V39.7214ZM430.029 39.7214H430.714V37.3418H432.004V36.8159H428.74V37.3418H430.029V39.7177V39.7214ZM426.232 39.7848C426.659 39.7848 427.153 39.7177 427.514 39.4566C427.783 39.2589 427.93 38.9866 427.934 38.636H427.26C427.26 38.8412 427.153 38.9866 426.987 39.0873C426.773 39.2179 426.493 39.2626 426.25 39.2626C425.945 39.2626 425.569 39.2141 425.326 38.9904C424.976 38.6659 424.946 37.8751 425.311 37.5432C425.55 37.3194 425.915 37.2709 426.221 37.2709C426.475 37.2709 426.759 37.3119 426.98 37.4611C427.138 37.5656 427.237 37.6924 427.237 37.8975H427.915C427.915 37.5581 427.757 37.2933 427.503 37.0993C427.142 36.8233 426.644 36.745 426.213 36.745C425.735 36.745 425.193 36.8308 424.806 37.1553C424.169 37.6849 424.177 38.8449 424.806 39.3745C425.193 39.699 425.749 39.7848 426.228 39.7848H426.232ZM419.838 39.7214H420.534L420.88 39.0165H422.556L422.902 39.7214H423.631L422.184 36.8159H421.278L419.838 39.7214ZM421.101 38.5279L421.716 37.2821L422.335 38.5279H421.101ZM415.576 39.7214V37.6737L415.565 37.4052H415.576L416.644 39.7214H417.13L418.199 37.4052H418.21L418.199 37.6737V39.7177H418.836V36.8159H417.908L416.913 38.9717L415.926 36.8159H414.939V39.7214H415.576ZM501.405 38.2369C501.283 38.2369 501.177 38.2295 501.088 38.2108C500.856 38.1698 500.679 38.0542 500.679 37.7819C500.679 37.3418 501.096 37.3306 501.409 37.3306H502.525V38.2407H501.405V38.2369Z" fill="#1D1D1B"/>
<path fill-rule="evenodd" clip-rule="evenodd" d="M500.732 50.9067L503.21 59.3884H499.45L497.431 52.7717H495.199V59.3884H491.634V52.7717H489.409L487.387 59.3884H483.626L486.105 50.9067L483.663 42.8055H487.398L489.376 49.2693H491.63V42.8055H495.196V49.2693H497.457L499.435 42.8055H503.166L500.721 50.9067H500.732ZM428.977 42.8055H414.836V59.3884H420.114V62.2678H423.68V59.3884H428.973V52.9581H425.407V55.8376H418.402V46.2519H425.407V49.1313H428.973V42.8055H428.977ZM480.44 42.8055V46.1437H471.224V49.2693H479.07V52.7717L471.224 52.7157V55.942H480.44V59.3884H467.659V42.8055H480.44ZM446.012 42.8055V46.1437H436.796V49.2693H444.642V52.7717L436.796 52.7157V55.942H446.012V59.3884H433.231V42.8055H446.012ZM453.412 42.8055V49.2693H460.001V42.8055H463.567V59.3884H460.001V52.7717H453.412V59.3884H449.846V42.8055H453.412Z" fill="#E4032E"/>
</g>
<path d="M254.614 48.5221H251.953V55.7132H250.052V48.5221H247.403V46.851H254.614V48.5221Z" fill="black"/>
<path d="M348.645 48.5221H345.984V55.7132H344.08V48.5221H341.429V46.851H348.639V48.5221H348.642H348.645Z" fill="black"/>
<path d="M261.305 53.8108H257.444L256.708 55.7103H254.737L258.445 46.851H260.346L264.063 55.7103H262.041L261.305 53.8108ZM260.699 52.2538L259.381 48.8616L258.062 52.2538H260.702H260.699Z" fill="black"/>
<path d="M273.025 51.8762C273.293 52.2391 273.432 52.6869 273.432 53.2196C273.432 54.004 273.152 54.6157 272.593 55.0547C272.034 55.4908 271.236 55.7132 270.197 55.7132H266.098V46.851H269.971C270.939 46.851 271.689 47.05 272.228 47.4451C272.767 47.8431 273.034 48.408 273.034 49.1426C273.034 49.5787 272.931 49.968 272.725 50.2987C272.519 50.6294 272.228 50.8928 271.857 51.0889C272.363 51.2499 272.752 51.5104 273.02 51.8733L273.025 51.8762ZM268.011 50.5211H269.803C270.224 50.5211 270.539 50.4304 270.754 50.2489C270.968 50.0645 271.074 49.7982 271.074 49.447C271.074 49.0958 270.965 48.8353 270.748 48.6509C270.53 48.4636 270.215 48.3729 269.803 48.3729H268.011V50.524V50.5211ZM271.477 53.0528C271.477 52.3182 271.024 51.9523 270.124 51.9523H268.008V54.1913H270.124C271.027 54.1913 271.477 53.8137 271.477 53.0528Z" fill="black"/>
<path d="M281.127 47.2461C281.668 47.5065 282.086 47.8782 282.381 48.3582C282.675 48.8382 282.822 49.4089 282.822 50.0675C282.822 50.726 282.675 51.2821 282.381 51.7709C282.086 52.2538 281.668 52.6255 281.127 52.883C280.585 53.1406 279.944 53.2664 279.208 53.2664H277.533V55.7074H275.609V46.851H279.208C279.944 46.851 280.582 46.9827 281.127 47.2431V47.2461ZM280.418 51.2001C280.718 50.9338 280.871 50.5592 280.871 50.0675C280.871 49.5758 280.721 49.1865 280.418 48.9231C280.114 48.6568 279.679 48.5221 279.099 48.5221H277.53V51.5952H279.099C279.676 51.5952 280.114 51.4606 280.418 51.1943V51.2001Z" fill="black"/>
<path d="M338.254 47.2461C338.796 47.5065 339.214 47.8782 339.508 48.3582C339.802 48.8382 339.946 49.4089 339.946 50.0675C339.946 50.726 339.799 51.2821 339.508 51.7709C339.214 52.2538 338.796 52.6255 338.254 52.883C337.713 53.1406 337.071 53.2664 336.335 53.2664H334.661V55.7074H332.736V46.851H336.335C337.071 46.851 337.71 46.9827 338.254 47.2431V47.2461ZM337.545 51.2001C337.845 50.9338 337.998 50.5592 337.998 50.0675C337.998 49.5758 337.848 49.1865 337.545 48.9231C337.242 48.6568 336.806 48.5221 336.227 48.5221H334.658V51.5952H336.227C336.803 51.5952 337.245 51.4606 337.545 51.1943V51.2001Z" fill="black"/>
<path d="M285.016 46.851H286.929V52.6225L290.896 46.851H292.703V55.7103H290.802V49.9504L286.835 55.7103H285.016V46.851Z" fill="black"/>
<path d="M303.82 55.7249L294.759 55.7161C295.968 52.7601 297.178 49.807 298.39 46.851H300.303C301.478 49.807 302.646 52.766 303.817 55.722H303.82V55.7249ZM297.346 54.042H301.113L299.282 49.0051L297.346 54.042Z" fill="black"/>
<path d="M311.878 53.8108H308.017L307.281 55.7103H305.31L309.018 46.851H310.922L314.639 55.7103H312.617L311.881 53.8108H311.878ZM311.272 52.2538L309.954 48.8616L308.635 52.2538H311.275H311.272Z" fill="black"/>
<path d="M328.494 53.8108H324.633L323.897 55.7103H321.925L325.633 46.851H327.538L331.255 55.7103H329.233L328.497 53.8108H328.494ZM327.888 52.2538L326.569 48.8616L325.251 52.2538H327.891H327.888Z" fill="black"/>
<path d="M318.279 50.5618C320.033 50.5618 321.457 49.1482 321.457 47.4009C321.457 45.6536 320.036 44.24 318.279 44.24C316.522 44.24 315.1 45.6536 315.1 47.4009C315.1 49.1482 316.525 50.5618 318.279 50.5618Z" fill="black"/>
<g clip-path="url(#clip1_2127_182)">
<path d="M169.809 31.2684H113.926L111.53 42.3728H167.528L169.809 31.2684Z" fill="white"/>
<path d="M169.809 31.2684L167.528 42.3728H111.53L113.927 31.2684H169.809ZM112.229 41.8112H167.067L169.117 31.83H114.382L112.229 41.8112Z" fill="#164194"/>
<path d="M116.249 40.0819C116.18 40.4034 115.99 40.5642 115.681 40.5642C115.373 40.5642 115.252 40.4014 115.324 40.0798L116.609 34.1531C116.646 33.9842 116.711 33.856 116.809 33.7644C116.905 33.6728 117.024 33.6281 117.165 33.6281L119.271 33.6342C120.213 33.6382 120.865 33.7705 121.231 34.0351C121.596 34.2997 121.717 34.721 121.59 35.3031C121.462 35.8994 121.18 36.3492 120.744 36.6565C120.309 36.9638 119.743 37.1165 119.044 37.1145L116.893 37.1084L116.247 40.0819H116.249ZM118.707 36.2312C119.449 36.2332 119.941 36.1762 120.181 36.0582C120.418 35.9544 120.573 35.7264 120.648 35.3763C120.699 35.1382 120.691 34.9591 120.622 34.839C120.552 34.719 120.401 34.6375 120.168 34.5907C119.935 34.5439 119.574 34.5215 119.079 34.5195L117.457 34.5134L117.085 36.2271L118.705 36.2332L118.707 36.2312Z" fill="#E4032E"/>
<path d="M116.249 40.0819C116.18 40.4034 115.99 40.5642 115.681 40.5642C115.373 40.5642 115.252 40.4014 115.324 40.0798L116.609 34.1531C116.646 33.9842 116.711 33.856 116.809 33.7644C116.905 33.6728 117.024 33.6281 117.165 33.6281L119.271 33.6342C120.213 33.6382 120.865 33.7705 121.231 34.0351C121.596 34.2997 121.717 34.721 121.59 35.3031C121.462 35.8994 121.18 36.3492 120.744 36.6565C120.309 36.9638 119.743 37.1165 119.044 37.1145L116.893 37.1084L116.247 40.0819H116.249ZM118.707 36.2312C119.449 36.2332 119.941 36.1762 120.181 36.0582C120.418 35.9544 120.573 35.7264 120.648 35.3763C120.699 35.1382 120.691 34.9591 120.622 34.839C120.552 34.719 120.401 34.6375 120.168 34.5907C119.935 34.5439 119.574 34.5215 119.079 34.5195L117.457 34.5134L117.085 36.2271L118.705 36.2332L118.707 36.2312Z" fill="#164194"/>
<path d="M127.645 38.0562C127.533 38.5752 127.318 39.0271 127.001 39.4158C126.685 39.8045 126.29 40.1017 125.814 40.3113C125.338 40.5189 124.813 40.6227 124.241 40.6207C123.667 40.6207 123.189 40.5128 122.805 40.3011C122.421 40.0895 122.155 39.7883 122.008 39.3995C121.861 39.0108 121.842 38.5569 121.955 38.0379L122.355 36.1879C122.468 35.6689 122.682 35.2171 122.999 34.8283C123.315 34.4396 123.71 34.1424 124.186 33.9328C124.662 33.7232 125.187 33.6214 125.759 33.6234C126.333 33.6234 126.811 33.7313 127.196 33.943C127.58 34.1546 127.845 34.4559 127.992 34.8446C128.14 35.2333 128.158 35.6892 128.046 36.2062L127.645 38.0562ZM125.567 34.5047C124.942 34.5027 124.433 34.6472 124.043 34.9423C123.653 35.2354 123.395 35.6628 123.275 36.2225L122.886 38.0094C122.766 38.5691 122.835 38.9986 123.099 39.2937C123.362 39.5888 123.806 39.7374 124.431 39.7394C125.056 39.7394 125.563 39.5949 125.955 39.3018C126.346 39.0087 126.603 38.5813 126.724 38.0216L127.112 36.2347C127.228 35.6953 127.163 35.2679 126.916 34.9504C126.648 34.6553 126.198 34.5067 125.567 34.5047Z" fill="#E4032E"/>
<path d="M127.645 38.0562C127.533 38.5752 127.318 39.0271 127.001 39.4158C126.685 39.8045 126.29 40.1017 125.814 40.3113C125.338 40.5189 124.813 40.6227 124.241 40.6207C123.667 40.6207 123.189 40.5128 122.805 40.3011C122.421 40.0895 122.155 39.7883 122.008 39.3995C121.861 39.0108 121.842 38.5569 121.955 38.0379L122.355 36.1879C122.468 35.6689 122.682 35.2171 122.999 34.8283C123.315 34.4396 123.71 34.1424 124.186 33.9328C124.662 33.7232 125.187 33.6214 125.759 33.6234C126.333 33.6234 126.811 33.7313 127.196 33.943C127.58 34.1546 127.845 34.4559 127.992 34.8446C128.14 35.2333 128.158 35.6892 128.046 36.2062L127.645 38.0562ZM125.567 34.5047C124.942 34.5027 124.433 34.6472 124.043 34.9423C123.653 35.2354 123.395 35.6628 123.275 36.2225L122.886 38.0094C122.766 38.5691 122.835 38.9986 123.099 39.2937C123.362 39.5888 123.806 39.7374 124.431 39.7394C125.056 39.7394 125.563 39.5949 125.955 39.3018C126.346 39.0087 126.603 38.5813 126.724 38.0216L127.112 36.2347C127.228 35.6953 127.163 35.2679 126.916 34.9504C126.648 34.6553 126.198 34.5067 125.567 34.5047Z" fill="#164194"/>
<path d="M131.313 40.5561C130.592 40.5541 130.043 40.4889 129.663 40.3607C129.283 40.2325 129.031 40.0249 128.909 39.7379C128.788 39.4509 128.782 39.0541 128.89 38.5493L129.501 35.7325C129.609 35.2359 129.781 34.8431 130.016 34.5561C130.251 34.2692 130.576 34.0616 130.991 33.9333C131.405 33.8051 131.939 33.742 132.595 33.7441L134.348 33.7502C134.781 33.7502 135.081 33.858 135.245 34.0677C135.408 34.2793 135.443 34.605 135.347 35.0466C135.261 35.4394 135.065 35.6348 134.756 35.6328C134.609 35.6328 134.505 35.5839 134.446 35.4842C134.386 35.3865 134.374 35.2502 134.413 35.0731C134.452 34.8981 134.448 34.78 134.401 34.721C134.354 34.662 134.248 34.6314 134.078 34.6314L132.4 34.6253C131.894 34.6253 131.516 34.6498 131.269 34.7067C131.021 34.7617 130.835 34.8675 130.715 35.0263C130.592 35.183 130.494 35.4272 130.425 35.7569L129.824 38.531C129.75 38.8668 129.744 39.1131 129.801 39.2678C129.861 39.4224 130.016 39.5283 130.267 39.5853C130.521 39.6423 130.933 39.6708 131.508 39.6728L132.985 39.6789C133.154 39.6789 133.275 39.6504 133.346 39.5914C133.418 39.5324 133.473 39.4143 133.512 39.2393C133.551 39.0642 133.62 38.9279 133.722 38.8302C133.825 38.7325 133.949 38.6836 134.096 38.6836C134.403 38.6918 134.515 38.8912 134.429 39.2841C134.335 39.7176 134.16 40.0412 133.906 40.2508C133.651 40.4604 133.306 40.5642 132.872 40.5642L131.318 40.5581L131.313 40.5561Z" fill="#E4032E"/>
<path d="M131.313 40.5561C130.592 40.5541 130.043 40.4889 129.663 40.3607C129.283 40.2325 129.031 40.0249 128.909 39.7379C128.788 39.4509 128.782 39.0541 128.89 38.5493L129.501 35.7325C129.609 35.2359 129.781 34.8431 130.016 34.5561C130.251 34.2692 130.576 34.0616 130.991 33.9333C131.405 33.8051 131.939 33.742 132.595 33.7441L134.348 33.7502C134.781 33.7502 135.081 33.858 135.245 34.0677C135.408 34.2793 135.443 34.605 135.347 35.0466C135.261 35.4394 135.065 35.6348 134.756 35.6328C134.609 35.6328 134.505 35.5839 134.446 35.4842C134.386 35.3865 134.374 35.2502 134.413 35.0731C134.452 34.8981 134.448 34.78 134.401 34.721C134.354 34.662 134.248 34.6314 134.078 34.6314L132.4 34.6253C131.894 34.6253 131.516 34.6498 131.269 34.7067C131.021 34.7617 130.835 34.8675 130.715 35.0263C130.592 35.183 130.494 35.4272 130.425 35.7569L129.824 38.531C129.75 38.8668 129.744 39.1131 129.801 39.2678C129.861 39.4224 130.016 39.5283 130.267 39.5853C130.521 39.6423 130.933 39.6708 131.508 39.6728L132.985 39.6789C133.154 39.6789 133.275 39.6504 133.346 39.5914C133.418 39.5324 133.473 39.4143 133.512 39.2393C133.551 39.0642 133.62 38.9279 133.722 38.8302C133.825 38.7325 133.949 38.6836 134.096 38.6836C134.403 38.6918 134.515 38.8912 134.429 39.2841C134.335 39.7176 134.16 40.0412 133.906 40.2508C133.651 40.4604 133.306 40.5642 132.872 40.5642L131.318 40.5581L131.313 40.5561Z" fill="#164194"/>
<path d="M138.277 40.57C137.556 40.568 137.007 40.5028 136.627 40.3746C136.247 40.2464 135.995 40.0388 135.873 39.7518C135.752 39.4649 135.746 39.068 135.854 38.5632L136.465 35.7464C136.573 35.2498 136.745 34.857 136.98 34.5701C137.215 34.2831 137.54 34.0755 137.953 33.9473C138.367 33.819 138.901 33.7559 139.557 33.758L141.31 33.7641C141.743 33.7641 142.043 33.872 142.207 34.0816C142.37 34.2933 142.405 34.6189 142.309 35.0605C142.223 35.4534 142.027 35.6487 141.718 35.6467C141.571 35.6467 141.467 35.5979 141.408 35.4981C141.348 35.4004 141.336 35.2641 141.375 35.087C141.414 34.912 141.41 34.7939 141.363 34.7349C141.316 34.6759 141.209 34.6454 141.04 34.6454L139.362 34.6392C138.856 34.6392 138.478 34.6637 138.23 34.7207C137.983 34.7756 137.797 34.8814 137.675 35.0402C137.552 35.1969 137.454 35.4411 137.385 35.7709L136.784 38.5449C136.71 38.8807 136.704 39.127 136.761 39.2817C136.821 39.4364 136.976 39.5422 137.227 39.5992C137.481 39.6562 137.893 39.6847 138.465 39.6867L139.943 39.6908C140.112 39.6908 140.233 39.6623 140.304 39.6033C140.376 39.5442 140.431 39.4262 140.47 39.2512C140.507 39.0761 140.578 38.9398 140.68 38.8421C140.782 38.7444 140.907 38.6955 141.054 38.6955C141.361 38.7037 141.473 38.9031 141.387 39.2959C141.293 39.7294 141.118 40.0531 140.864 40.2627C140.609 40.4723 140.263 40.5761 139.83 40.5761L138.275 40.57H138.277Z" fill="#E4032E"/>
<path d="M138.277 40.57C137.556 40.568 137.007 40.5028 136.627 40.3746C136.247 40.2464 135.995 40.0388 135.873 39.7518C135.752 39.4649 135.746 39.068 135.854 38.5632L136.465 35.7464C136.573 35.2498 136.745 34.857 136.98 34.5701C137.215 34.2831 137.54 34.0755 137.953 33.9473C138.367 33.819 138.901 33.7559 139.557 33.758L141.31 33.7641C141.743 33.7641 142.043 33.872 142.207 34.0816C142.37 34.2933 142.405 34.6189 142.309 35.0605C142.223 35.4534 142.027 35.6487 141.718 35.6467C141.571 35.6467 141.467 35.5979 141.408 35.4981C141.348 35.4004 141.336 35.2641 141.375 35.087C141.414 34.912 141.41 34.7939 141.363 34.7349C141.316 34.6759 141.209 34.6454 141.04 34.6454L139.362 34.6392C138.856 34.6392 138.478 34.6637 138.23 34.7207C137.983 34.7756 137.797 34.8814 137.675 35.0402C137.552 35.1969 137.454 35.4411 137.385 35.7709L136.784 38.5449C136.71 38.8807 136.704 39.127 136.761 39.2817C136.821 39.4364 136.976 39.5422 137.227 39.5992C137.481 39.6562 137.893 39.6847 138.465 39.6867L139.943 39.6908C140.112 39.6908 140.233 39.6623 140.304 39.6033C140.376 39.5442 140.431 39.4262 140.47 39.2512C140.507 39.0761 140.578 38.9398 140.68 38.8421C140.782 38.7444 140.907 38.6955 141.054 38.6955C141.361 38.7037 141.473 38.9031 141.387 39.2959C141.293 39.7294 141.118 40.0531 140.864 40.2627C140.609 40.4723 140.263 40.5761 139.83 40.5761L138.275 40.57H138.277Z" fill="#164194"/>
<path d="M142.621 40.1474L143.908 34.2105C143.982 33.8666 144.174 33.6956 144.482 33.6976C144.791 33.6976 144.905 33.8808 144.828 34.2451L143.78 39.0789L148.738 33.9744C148.916 33.7994 149.094 33.7119 149.27 33.7139C149.564 33.7139 149.674 33.8869 149.599 34.2309L148.311 40.1698C148.238 40.5056 148.048 40.6725 147.739 40.6725C147.431 40.6725 147.31 40.5137 147.38 40.1983L148.442 35.3014L143.536 40.3652C143.422 40.4832 143.328 40.5626 143.252 40.6013C143.179 40.6399 143.083 40.6582 142.964 40.6582C142.662 40.6582 142.55 40.4893 142.621 40.1515" fill="#E4032E"/>
<path d="M142.621 40.1474L143.908 34.2105C143.982 33.8666 144.174 33.6956 144.482 33.6976C144.791 33.6976 144.905 33.8808 144.828 34.2451L143.78 39.0789L148.738 33.9744C148.916 33.7994 149.094 33.7119 149.27 33.7139C149.564 33.7139 149.674 33.8869 149.599 34.2309L148.311 40.1698C148.238 40.5056 148.048 40.6725 147.739 40.6725C147.431 40.6725 147.31 40.5137 147.38 40.1983L148.442 35.3014L143.536 40.3652C143.422 40.4832 143.328 40.5626 143.252 40.6013C143.179 40.6399 143.083 40.6582 142.964 40.6582C142.662 40.6582 142.55 40.4893 142.621 40.1515V40.1474Z" fill="#164194"/>
<path d="M154.308 40.2179L154.866 37.6433L153.311 37.6372C152.974 37.6372 152.71 37.6901 152.52 37.798C152.33 37.9058 152.171 38.089 152.042 38.3475L151.553 39.3244C151.339 39.7376 151.063 40.0673 150.726 40.3156C150.389 40.5639 150.044 40.686 149.69 40.686C149.308 40.686 149.149 40.5374 149.212 40.2423C149.275 39.9554 149.496 39.8129 149.878 39.8129C150.011 39.8129 150.15 39.7518 150.293 39.6297C150.436 39.5076 150.542 39.3834 150.605 39.2573L151.147 38.1867C151.318 37.8651 151.543 37.5965 151.819 37.3787C151.145 37.0612 150.894 36.5056 151.065 35.7139C151.198 35.0972 151.533 34.625 152.068 34.2973C152.604 33.9696 153.3 33.8068 154.161 33.8089L156.19 33.815C156.484 33.815 156.592 33.9941 156.514 34.3523L155.244 40.2159C155.174 40.5374 154.988 40.6982 154.686 40.6982C154.363 40.6982 154.236 40.5354 154.306 40.2138M155.503 34.7003L153.971 34.6962C153.368 34.6962 152.91 34.7776 152.598 34.9445C152.285 35.1114 152.089 35.3821 152.009 35.7525C151.864 36.4181 152.369 36.7518 153.525 36.7559L155.058 36.76L155.503 34.7003Z" fill="#E4032E"/>
<path d="M154.308 40.2179L154.866 37.6433L153.311 37.6372C152.974 37.6372 152.71 37.6901 152.52 37.798C152.33 37.9058 152.171 38.089 152.042 38.3475L151.553 39.3244C151.339 39.7376 151.063 40.0673 150.726 40.3156C150.389 40.5639 150.044 40.686 149.69 40.686C149.308 40.686 149.149 40.5374 149.212 40.2423C149.275 39.9554 149.496 39.8129 149.878 39.8129C150.011 39.8129 150.15 39.7518 150.293 39.6297C150.436 39.5076 150.542 39.3834 150.605 39.2573L151.147 38.1867C151.318 37.8651 151.543 37.5965 151.819 37.3787C151.145 37.0612 150.894 36.5056 151.065 35.7139C151.198 35.0972 151.533 34.625 152.068 34.2973C152.604 33.9696 153.3 33.8068 154.161 33.8089L156.19 33.815C156.484 33.815 156.592 33.9941 156.514 34.3523L155.244 40.2159C155.174 40.5374 154.988 40.6982 154.686 40.6982C154.363 40.6982 154.236 40.5354 154.306 40.2138L154.308 40.2179ZM155.503 34.7003L153.971 34.6962C153.368 34.6962 152.91 34.7776 152.598 34.9445C152.285 35.1114 152.089 35.3821 152.009 35.7525C151.864 36.4181 152.369 36.7518 153.525 36.7559L155.058 36.76L155.503 34.7003Z" fill="#164194"/>
<path d="M161.086 38.0044C161.031 37.9372 161.015 37.8477 161.039 37.7357C161.066 37.6157 161.119 37.5261 161.202 37.463C161.286 37.3999 161.386 37.3694 161.505 37.3694L165.597 37.3816C165.722 37.3816 165.812 37.4142 165.863 37.4773C165.916 37.5403 165.928 37.6319 165.902 37.75C165.875 37.8701 165.822 37.9596 165.743 38.0227C165.663 38.0858 165.561 38.1163 165.436 38.1163L161.343 38.1041C161.225 38.1041 161.139 38.0695 161.084 38.0024" fill="#E4032E"/>
<path d="M159.056 38.0044C159.001 37.9372 158.985 37.8477 159.009 37.7357C159.036 37.6157 159.089 37.5261 159.173 37.463C159.257 37.3999 159.357 37.3694 159.475 37.3694L165.597 37.3816C165.721 37.3816 165.811 37.4142 165.862 37.4773C165.915 37.5403 165.928 37.6319 165.901 37.75C165.875 37.8701 165.821 37.9596 165.742 38.0227C165.662 38.0858 165.56 38.1163 165.435 38.1163L159.314 38.1041C159.195 38.1041 159.109 38.0695 159.054 38.0024L159.056 38.0044Z" fill="#164194"/>
<path d="M121.267 43.5214L118.846 54.7377H164.8L167.221 43.5214H121.267Z" fill="#164194"/>
<path d="M128.282 46.0226L126.529 46.0165C125.867 46.0165 125.321 46.0796 124.901 46.2098C124.471 46.3421 124.13 46.5619 123.887 46.8591C123.644 47.1542 123.466 47.5612 123.356 48.0701L122.745 50.8869C122.633 51.4059 122.641 51.8231 122.767 52.1243C122.898 52.4337 123.168 52.6575 123.57 52.7939C123.959 52.9242 124.523 52.9913 125.248 52.9934L126.803 52.9974C126.803 52.9974 126.819 52.9974 126.827 52.9974C127.267 52.9954 127.624 52.8835 127.89 52.6657C128.157 52.4459 128.343 52.104 128.441 51.6542C128.497 51.4038 128.476 51.2247 128.38 51.1046C128.305 51.009 128.186 50.9581 128.027 50.954C128.025 50.954 128.023 50.954 128.021 50.954C127.855 50.954 127.712 51.011 127.596 51.123C127.481 51.2308 127.404 51.3835 127.363 51.5748C127.32 51.7681 127.265 51.8475 127.226 51.8801C127.171 51.9248 127.06 51.9493 126.917 51.9493L125.44 51.9452C124.874 51.9452 124.463 51.9147 124.218 51.8597C123.995 51.8088 123.859 51.7193 123.812 51.5931C123.758 51.4547 123.767 51.2227 123.836 50.9031L124.437 48.1291C124.504 47.8136 124.598 47.5796 124.713 47.431C124.821 47.2906 124.993 47.1929 125.219 47.142C125.46 47.0891 125.832 47.0626 126.333 47.0626L128.008 47.0687C128.207 47.0687 128.256 47.1135 128.266 47.1277C128.276 47.142 128.309 47.203 128.262 47.4127C128.219 47.6081 128.233 47.7668 128.305 47.8828C128.38 48.007 128.507 48.0701 128.685 48.0721C128.687 48.0721 128.689 48.0721 128.691 48.0721C128.932 48.0721 129.24 47.9561 129.357 47.4208C129.457 46.9568 129.418 46.6047 129.238 46.3747C129.059 46.1447 128.736 46.0267 128.276 46.0246L128.282 46.0226Z" fill="white"/>
<path d="M135.599 46.5884C135.634 46.4296 135.613 46.3014 135.538 46.2078C135.45 46.0999 135.299 46.045 135.074 46.045L130.871 46.0307C130.685 46.0287 130.526 46.0755 130.399 46.165C130.268 46.2587 130.187 46.3828 130.154 46.5354C130.119 46.6962 130.152 46.8306 130.248 46.9303C130.342 47.028 130.487 47.0768 130.679 47.0789L132.165 47.0829L130.99 52.5008C130.951 52.6799 130.975 52.8244 131.061 52.9282C131.147 53.032 131.286 53.0849 131.472 53.0849C131.474 53.0849 131.478 53.0849 131.48 53.0849C131.656 53.0849 131.811 53.032 131.942 52.9323C132.077 52.8305 132.162 52.6982 132.197 52.5374L133.38 47.085L134.88 47.089C134.88 47.089 134.888 47.089 134.892 47.089C135.385 47.087 135.548 46.8143 135.597 46.5843L135.599 46.5884Z" fill="white"/>
<path d="M141.667 47.7868C141.8 47.1722 141.667 46.7183 141.275 46.4354C140.891 46.1586 140.235 46.0223 139.267 46.0182L137.16 46.0121C137.009 46.0121 136.86 46.065 136.747 46.1708C136.639 46.2726 136.563 46.4171 136.523 46.6023L135.237 52.529C135.197 52.7203 135.217 52.8689 135.297 52.9686C135.374 53.0643 135.501 53.1131 135.677 53.1131C135.679 53.1131 135.683 53.1131 135.685 53.1131C136.026 53.1131 136.249 52.9218 136.326 52.5656L136.958 49.6572L139.042 49.6633C139.745 49.6674 140.343 49.5066 140.789 49.1912C141.238 48.8737 141.535 48.4015 141.667 47.7868ZM140.562 47.8235C140.491 48.1491 140.354 48.3547 140.137 48.4503C139.912 48.5623 139.43 48.6193 138.701 48.6152L137.181 48.6111L137.516 47.0623L139.071 47.0664C139.557 47.0664 139.916 47.0928 140.143 47.1376C140.352 47.1783 140.484 47.2495 140.542 47.3472C140.601 47.4469 140.607 47.6077 140.56 47.8235H140.562Z" fill="white"/>
<path d="M146.186 46.1648L146.174 46.0997L145.067 46.0956L141.029 52.468C140.988 52.5433 140.956 52.639 140.931 52.7529C140.905 52.8771 140.939 52.9951 141.033 53.0908C141.125 53.1844 141.246 53.2312 141.393 53.2312C141.393 53.2312 141.397 53.2312 141.399 53.2312C141.638 53.2312 141.842 53.105 142.01 52.8567L143.117 51.0799L145.982 51.0901L146.313 52.8425C146.36 53.1071 146.528 53.2475 146.795 53.2475C146.797 53.2475 146.799 53.2475 146.801 53.2475C146.94 53.2475 147.073 53.2027 147.194 53.1172C147.318 53.0277 147.396 52.9239 147.42 52.8058C147.445 52.6919 147.453 52.5962 147.445 52.5107L146.184 46.1648H146.186ZM145.768 50.042L143.792 50.0358L145.273 47.7177L145.768 50.042Z" fill="white"/>
<path d="M155.449 46.1914C155.372 46.0958 155.247 46.0469 155.078 46.0469C155.076 46.0469 155.073 46.0469 155.071 46.0469C154.83 46.0469 154.526 46.1507 154.422 46.6249L153.946 48.8189L150.276 48.8067L150.744 46.6473C150.789 46.4438 150.766 46.2871 150.681 46.1812C150.601 46.0815 150.468 46.0327 150.288 46.0306C150.288 46.0306 150.284 46.0306 150.282 46.0306C150.051 46.0306 149.757 46.1344 149.655 46.6087L148.368 52.5455C148.323 52.747 148.343 52.9037 148.427 53.0075C148.505 53.1032 148.629 53.152 148.801 53.152C148.803 53.152 148.807 53.152 148.809 53.152C149.152 53.152 149.375 52.9546 149.455 52.5842L150.047 49.8529L153.717 49.8651L153.132 52.5618C153.09 52.7633 153.108 52.92 153.192 53.0238C153.269 53.1195 153.394 53.1683 153.566 53.1683C153.568 53.1683 153.57 53.1683 153.574 53.1683C153.917 53.1683 154.14 52.9709 154.219 52.6005L155.507 46.6616C155.552 46.454 155.531 46.2952 155.447 46.1894L155.449 46.1914Z" fill="white"/>
<path d="M161.588 52.5524L160.325 46.2064L160.313 46.1413L159.208 46.1372L155.17 52.5096C155.13 52.587 155.097 52.6826 155.072 52.7925C155.046 52.9167 155.08 53.0347 155.174 53.1304C155.264 53.224 155.387 53.2708 155.534 53.2708C155.777 53.2708 155.982 53.1467 156.151 52.8963L157.261 51.1195L160.125 51.1297L160.456 52.8821C160.503 53.1467 160.671 53.2871 160.938 53.2891C160.938 53.2891 160.94 53.2891 160.942 53.2891C161.083 53.2891 161.216 53.2443 161.337 53.1589C161.464 53.0713 161.539 52.9655 161.564 52.8475C161.588 52.7315 161.596 52.6378 161.588 52.5503V52.5524ZM159.907 50.0836L157.931 50.0775L159.412 47.7593L159.907 50.0836Z" fill="white"/>
<path d="M94.5725 55.6401L92.1758 66.7445H183.477L185.872 55.6401H94.5725Z" fill="#E4032E"/>
<path d="M101.487 57.838C101.113 57.7159 100.59 57.6528 99.9277 57.6508L97.8539 57.6447H97.8498C97.6904 57.6447 97.5535 57.6976 97.4432 57.8034C97.3349 57.9052 97.2593 58.0497 97.2184 58.2349L95.97 63.9947C95.9292 64.184 95.9435 64.3366 96.0129 64.4445C96.0865 64.5605 96.2091 64.6215 96.3787 64.6215L98.7835 64.6297C98.8183 64.6297 98.853 64.6297 98.8877 64.6297C99.5579 64.6256 100.11 64.5625 100.53 64.4424C100.98 64.3142 101.338 64.0985 101.593 63.7993C101.846 63.5042 102.032 63.0931 102.145 62.5761L102.188 62.3766C102.365 61.5544 102.22 60.9621 101.756 60.6141C102.047 60.3434 102.245 59.975 102.345 59.5151C102.439 59.0775 102.418 58.7193 102.282 58.4465C102.145 58.1718 101.877 57.9662 101.489 57.84L101.487 57.838ZM98.9736 63.5795L97.1571 63.5734L97.6414 61.3407L99.6928 61.3468C100.183 61.3468 100.541 61.3773 100.757 61.4323C100.953 61.4832 101.072 61.5666 101.119 61.6928C101.168 61.8292 101.16 62.0551 101.092 62.3665L101.056 62.5354C100.988 62.8488 100.892 63.0788 100.774 63.2192C100.659 63.3536 100.471 63.4492 100.218 63.5001C99.9523 63.553 99.5334 63.5795 98.9756 63.5795H98.9736ZM100.469 60.2315C100.216 60.2783 99.8419 60.3007 99.3556 60.3007L97.8702 60.2966L98.2053 58.7478L99.7275 58.7518C100.212 58.7518 100.575 58.7783 100.808 58.8271C101.025 58.8719 101.164 58.9432 101.225 59.0388C101.286 59.1365 101.295 59.2932 101.248 59.509C101.201 59.7288 101.119 59.8957 101.007 60.0015C100.894 60.1094 100.714 60.1847 100.469 60.2315Z" fill="white"/>
<path d="M108.643 57.9001C108.249 57.6824 107.751 57.5725 107.166 57.5704C106.584 57.5725 106.042 57.6763 105.558 57.8879C105.072 58.1016 104.663 58.411 104.34 58.8079C104.018 59.2048 103.795 59.6729 103.68 60.202L103.28 62.0521C103.166 62.5833 103.184 63.0575 103.335 63.4605C103.488 63.8675 103.77 64.185 104.171 64.4048C104.565 64.6226 105.062 64.7325 105.648 64.7346C105.66 64.7346 105.675 64.7346 105.687 64.7346C106.255 64.7325 106.782 64.6247 107.256 64.4171C107.74 64.2034 108.151 63.894 108.474 63.4971C108.797 63.1002 109.017 62.6321 109.134 62.103L109.534 60.2529C109.651 59.7217 109.63 59.2475 109.479 58.8445C109.326 58.4375 109.044 58.12 108.643 57.9001ZM108.439 60.2468L108.051 62.0338C107.934 62.5711 107.685 62.9863 107.313 63.2671C106.939 63.548 106.443 63.6823 105.84 63.6864C105.241 63.6864 104.814 63.5439 104.569 63.2671C104.326 62.9944 104.261 62.5874 104.375 62.0562L104.763 60.2692C104.88 59.7319 105.129 59.3167 105.501 59.0379C105.869 58.7631 106.353 58.6206 106.941 58.6186C106.952 58.6186 106.964 58.6186 106.974 58.6186C107.579 58.6186 108.012 58.7611 108.259 59.0318C108.49 59.3269 108.551 59.736 108.439 60.2468Z" fill="white"/>
<path d="M115.774 57.9434C115.46 57.7826 115.072 57.7012 114.618 57.6992L112.446 57.691C111.958 57.6992 111.578 57.8111 111.322 58.0513C111.071 58.2894 110.879 58.7005 110.754 59.2745C110.705 59.4963 110.726 59.6571 110.816 59.767C110.891 59.8627 111.016 59.9095 111.181 59.9115C111.183 59.9115 111.185 59.9115 111.187 59.9115C111.429 59.9115 111.735 59.8036 111.841 59.3111L111.882 59.1218C111.927 58.9102 111.98 58.8308 112.017 58.8003C112.052 58.7718 112.129 58.7351 112.33 58.7372L114.348 58.7433C114.73 58.7433 115.027 58.8349 115.229 59.014C115.425 59.189 115.493 59.4088 115.431 59.6876C115.374 59.9481 115.221 60.1517 114.959 60.3104C114.694 60.4712 114.369 60.5506 113.964 60.5526H113.016C113.016 60.5526 113.008 60.5506 113.004 60.5506C112.485 60.5526 112.315 60.8253 112.266 61.0553C112.234 61.21 112.254 61.3362 112.328 61.4278C112.42 61.5418 112.581 61.5967 112.824 61.5987H113.772C114.146 61.6028 114.432 61.6944 114.624 61.8715C114.812 62.0465 114.873 62.2663 114.812 62.5472C114.747 62.8504 114.569 63.1008 114.271 63.3104C113.979 63.516 113.641 63.6218 113.27 63.6238C113.263 63.6238 113.259 63.6238 113.253 63.6238L111.234 63.6177C111.022 63.6177 110.977 63.573 110.971 63.5648C110.965 63.5567 110.932 63.4997 110.983 63.2636L111.024 63.0743C111.073 62.8525 111.053 62.6917 110.963 62.5818C110.887 62.4861 110.762 62.4393 110.597 62.4373C110.364 62.4434 110.043 62.539 109.937 63.0377C109.81 63.6259 109.823 64.0329 109.978 64.2812C110.135 64.5336 110.468 64.6639 110.967 64.6639L113.139 64.672C113.139 64.672 113.157 64.672 113.165 64.672C113.592 64.67 114.001 64.5845 114.379 64.4176C114.767 64.2466 115.096 64.0044 115.36 63.6991C115.623 63.3938 115.799 63.0438 115.883 62.6612C116.018 62.0424 115.907 61.5214 115.556 61.1123C116.075 60.75 116.404 60.2616 116.535 59.6551C116.616 59.2745 116.592 58.9326 116.457 58.6374C116.322 58.3403 116.091 58.1062 115.772 57.9434H115.774Z" fill="white"/>
<path d="M123.852 57.6609C123.852 57.6609 123.85 57.6609 123.848 57.6609C123.658 57.6609 123.466 57.7586 123.272 57.9479L120.707 60.5917L119.312 57.9642C119.204 57.7525 119.04 57.6447 118.824 57.6447C118.821 57.6447 118.819 57.6447 118.817 57.6447C118.587 57.6447 118.294 57.7485 118.19 58.2227L116.903 64.1595C116.86 64.361 116.88 64.5177 116.964 64.6215C117.042 64.7172 117.166 64.766 117.338 64.766C117.585 64.7742 117.892 64.6643 117.998 64.1656L119.012 59.4927L120.098 61.589C120.197 61.707 120.329 61.7681 120.495 61.7681H120.499C120.648 61.7681 120.793 61.7131 120.93 61.6053L122.908 59.5354L121.909 64.1473C121.86 64.3692 121.88 64.5299 121.97 64.6399C122.048 64.7355 122.17 64.7823 122.336 64.7844C122.338 64.7844 122.342 64.7844 122.344 64.7844C122.685 64.7844 122.91 64.5869 122.99 64.2165L124.277 58.2797C124.322 58.07 124.301 57.9113 124.218 57.8054C124.142 57.7118 124.021 57.665 123.856 57.665L123.852 57.6609Z" fill="white"/>
<path d="M130.964 58.9326C130.81 58.5256 130.529 58.2081 130.128 57.9883C129.734 57.7705 129.237 57.6606 128.651 57.6586C128.068 57.6626 127.527 57.7644 127.043 57.9761C126.557 58.1898 126.146 58.4991 125.825 58.896C125.502 59.2929 125.282 59.761 125.165 60.2902L124.765 62.1402C124.648 62.6714 124.669 63.1456 124.82 63.5486C124.973 63.9557 125.255 64.2732 125.655 64.493C126.05 64.7108 126.546 64.8227 127.133 64.8247C127.145 64.8247 127.157 64.8247 127.169 64.8247C127.737 64.8227 128.267 64.7148 128.741 64.5072C129.227 64.2935 129.636 63.9842 129.958 63.5873C130.281 63.1904 130.504 62.7223 130.618 62.1931L131.019 60.3431C131.135 59.8119 131.115 59.3377 130.964 58.9347V58.9326ZM129.924 60.3349L129.536 62.1219C129.419 62.6592 129.172 63.0744 128.798 63.3532C128.424 63.6341 127.93 63.7725 127.325 63.7745C126.726 63.7745 126.299 63.6321 126.054 63.3573C125.811 63.0846 125.745 62.6755 125.86 62.1463L126.248 60.3594C126.364 59.8221 126.614 59.4069 126.986 59.128C127.353 58.8512 127.838 58.7108 128.428 58.7088C128.438 58.7088 128.449 58.7088 128.459 58.7088C129.064 58.7088 129.497 58.8512 129.744 59.124C129.975 59.4191 130.036 59.8282 129.924 60.339V60.3349Z" fill="white"/>
<path d="M140.674 58.5575C140.709 58.3947 140.674 58.2604 140.566 58.1586C140.464 58.063 140.312 58.0141 140.116 58.0141C139.826 58.0121 139.499 58.122 139.152 58.3398C138.864 58.5311 138.596 58.757 138.355 59.0114C138.116 59.2638 137.83 59.5894 137.503 59.9782C137.211 60.318 136.988 60.5643 136.841 60.7068C136.661 60.8818 136.561 60.9388 136.512 60.9571L137.017 58.6267C137.06 58.4232 137.039 58.2665 136.953 58.1607C136.874 58.063 136.741 58.0121 136.561 58.0101C136.39 58.004 136.249 58.0609 136.126 58.1647C136.003 58.2665 135.924 58.409 135.883 58.5881L135.368 60.9612C135.303 60.9612 135.225 60.8757 135.147 60.7149C135.047 60.5521 134.937 60.3099 134.816 59.9904C134.681 59.6586 134.555 59.3635 134.44 59.1111C134.269 58.7509 134.056 58.47 133.807 58.2807C133.554 58.0874 133.272 57.9877 132.967 57.9877C132.963 57.9877 132.959 57.9877 132.955 57.9877C132.473 57.9897 132.311 58.2563 132.262 58.4822C132.217 58.6939 132.293 58.8181 132.364 58.8852C132.462 58.9768 132.61 59.0277 132.8 59.0358C132.928 59.048 133.047 59.1579 133.151 59.3594C133.274 59.6016 133.419 59.9476 133.586 60.3832C133.721 60.7516 133.846 61.0263 133.964 61.2217C133.641 61.3642 133.339 61.5758 133.059 61.8506C132.755 62.1498 132.526 62.4571 132.375 62.7644C132.285 62.9496 132.152 63.1959 131.97 63.5175C131.925 63.6009 131.88 63.664 131.835 63.7068C131.784 63.7556 131.76 63.7576 131.76 63.7576C131.755 63.7576 131.749 63.7576 131.745 63.7576C131.228 63.7597 131.061 64.0324 131.01 64.2624C130.965 64.4659 131.044 64.5901 131.118 64.6593C131.218 64.7549 131.369 64.8038 131.568 64.8038C131.572 64.8038 131.576 64.8038 131.58 64.8038C131.921 64.8038 132.24 64.7061 132.526 64.5188C132.814 64.3316 133.057 64.065 133.255 63.723C133.445 63.3709 133.598 63.0941 133.709 62.9049C133.87 62.6118 134.079 62.3859 134.33 62.2332C134.571 62.0847 134.845 62.0093 135.141 62.0053L134.659 64.2278C134.622 64.3906 134.645 64.529 134.724 64.6389C134.806 64.7529 134.931 64.8099 135.098 64.8119C135.098 64.8119 135.102 64.8119 135.104 64.8119C135.268 64.8119 135.415 64.759 135.544 64.6593C135.674 64.5575 135.758 64.4252 135.793 64.2665L136.283 62.0093H136.293C136.622 62.0093 136.874 62.0908 137.035 62.2475C137.15 62.3777 137.229 62.5283 137.272 62.6932C137.317 62.8682 137.36 63.1145 137.401 63.4157C137.401 63.4808 137.411 63.5765 137.427 63.7068C137.46 64.0548 137.587 64.3316 137.799 64.529C138.014 64.7264 138.3 64.8262 138.651 64.8262C138.655 64.8262 138.662 64.8262 138.666 64.8262C139.203 64.8241 139.375 64.5514 139.424 64.3214C139.458 64.1606 139.418 64.0222 139.307 63.9225C139.203 63.8289 139.054 63.78 138.866 63.78C138.839 63.78 138.817 63.7393 138.805 63.7047C138.776 63.6315 138.764 63.5195 138.768 63.3648C138.762 62.9822 138.696 62.5894 138.572 62.1986C138.514 61.991 138.406 61.7956 138.247 61.6186C138.114 61.47 137.961 61.3479 137.789 61.2522C137.998 61.0467 138.245 60.7678 138.527 60.4218C138.878 59.9782 139.174 59.6383 139.405 59.4103C139.61 59.1885 139.789 59.0704 139.937 59.0603C140.137 59.0541 140.3 59.0073 140.427 58.9219C140.558 58.8323 140.639 58.7102 140.674 58.5555V58.5575Z" fill="white"/>
<path d="M147.215 57.726C147.215 57.726 147.21 57.726 147.208 57.726C146.967 57.726 146.663 57.8298 146.559 58.304L146.083 60.498L142.413 60.4858L142.881 58.3264C142.926 58.1229 142.903 57.9661 142.82 57.8603C142.74 57.7606 142.607 57.7097 142.427 57.7097C142.196 57.7056 141.898 57.8094 141.794 58.2877L140.507 64.2246C140.464 64.4261 140.482 64.5828 140.566 64.6866C140.644 64.7822 140.768 64.8311 140.94 64.8311C140.942 64.8311 140.944 64.8311 140.946 64.8311C141.289 64.8311 141.512 64.6337 141.592 64.2633L142.184 61.534L145.854 61.5462L145.269 64.2429C145.226 64.4444 145.247 64.6011 145.331 64.7049C145.408 64.8006 145.533 64.8494 145.705 64.8494C145.707 64.8494 145.709 64.8494 145.713 64.8494C146.056 64.8494 146.279 64.652 146.358 64.2816L147.646 58.3447C147.691 58.1371 147.67 57.9784 147.586 57.8725C147.509 57.7769 147.384 57.728 147.215 57.728V57.726Z" fill="white"/>
<path d="M153.504 58.0579C153.108 57.8401 152.611 57.7281 152.027 57.7281C151.447 57.7343 150.903 57.834 150.419 58.0456C149.935 58.2573 149.524 58.5667 149.201 58.9636C148.878 59.3604 148.655 59.8285 148.541 60.3577L148.141 62.2078C148.026 62.741 148.045 63.2132 148.198 63.6162C148.351 64.0232 148.631 64.3407 149.033 64.5605C149.43 64.7783 149.926 64.8902 150.511 64.8902C150.523 64.8902 150.537 64.8902 150.55 64.8902C151.118 64.8882 151.645 64.7803 152.117 64.5727C152.603 64.359 153.014 64.0497 153.334 63.6528C153.657 63.2559 153.88 62.7858 153.994 62.2586L154.395 60.4086C154.509 59.8774 154.491 59.4032 154.34 59.0002C154.186 58.5931 153.905 58.2756 153.504 58.0558V58.0579ZM153.3 60.4045L152.912 62.1915C152.795 62.7288 152.548 63.144 152.174 63.4248C151.8 63.7057 151.299 63.8421 150.701 63.8461C150.104 63.8461 149.675 63.7037 149.43 63.4269C149.187 63.1542 149.121 62.7451 149.236 62.2139L149.624 60.4269C149.74 59.8896 149.99 59.4744 150.362 59.1956C150.729 58.9208 151.214 58.7783 151.802 58.7763C151.812 58.7763 151.825 58.7763 151.835 58.7763C152.44 58.7763 152.873 58.9188 153.12 59.1895C153.351 59.4846 153.412 59.8937 153.3 60.4045Z" fill="white"/>
<path d="M160.63 57.8549L158.876 57.8488C158.217 57.8447 157.671 57.9119 157.25 58.0422C156.823 58.1744 156.482 58.3922 156.237 58.6914C155.996 58.9865 155.816 59.3956 155.705 59.9024L155.094 62.7192C154.982 63.2382 154.99 63.6554 155.117 63.9566C155.248 64.266 155.517 64.4899 155.92 64.6242C156.308 64.7545 156.872 64.8216 157.597 64.8237L159.152 64.8277C159.152 64.8277 159.169 64.8277 159.177 64.8277C159.616 64.8257 159.974 64.7137 160.237 64.496C160.505 64.2762 160.691 63.9342 160.789 63.4845C160.844 63.2341 160.824 63.055 160.73 62.9349C160.654 62.8393 160.536 62.7884 160.376 62.7843C160.217 62.7904 160.064 62.8413 159.945 62.9532C159.831 63.0632 159.753 63.2138 159.712 63.4051C159.669 63.5984 159.614 63.6778 159.575 63.7104C159.52 63.7572 159.41 63.7775 159.267 63.7796L157.787 63.7755C157.221 63.7735 156.811 63.745 156.566 63.69C156.343 63.6391 156.206 63.5496 156.159 63.4234C156.106 63.285 156.116 63.053 156.184 62.7334L156.784 59.9594C156.854 59.6419 156.946 59.4078 157.06 59.2633C157.172 59.1208 157.338 59.0252 157.567 58.9743C157.808 58.9214 158.184 58.8949 158.68 58.8949L160.358 58.901C160.554 58.901 160.603 58.9458 160.615 58.9601C160.625 58.9743 160.658 59.0354 160.611 59.245C160.568 59.4404 160.583 59.5991 160.654 59.7151C160.73 59.8393 160.856 59.9024 161.034 59.9044C161.034 59.9044 161.038 59.9044 161.04 59.9044C161.281 59.9044 161.59 59.7884 161.706 59.2511C161.806 58.7871 161.768 58.435 161.588 58.205C161.408 57.975 161.085 57.8569 160.625 57.8549H160.63Z" fill="white"/>
<path d="M167.946 58.4063C167.981 58.2475 167.96 58.1193 167.884 58.0257C167.797 57.9178 167.645 57.8629 167.421 57.8629L163.218 57.8486C163.034 57.8527 162.872 57.8934 162.746 57.983C162.615 58.0745 162.533 58.1987 162.501 58.3534C162.458 58.5549 162.529 58.679 162.597 58.7482C162.691 58.8459 162.834 58.8948 163.028 58.8968L164.513 58.9009L163.338 64.3187C163.299 64.4978 163.324 64.6423 163.41 64.7461C163.496 64.8499 163.635 64.9029 163.821 64.9029H163.825C164.002 64.9029 164.16 64.8499 164.293 64.7502C164.425 64.6484 164.511 64.5162 164.548 64.3554L165.731 58.9029L167.231 58.907C167.231 58.907 167.239 58.907 167.243 58.907C167.735 58.9049 167.899 58.6322 167.948 58.4022L167.946 58.4063Z" fill="white"/>
<path d="M174.636 58.0404C174.542 57.9468 174.393 57.9 174.194 57.9L169.495 57.8857C169.495 57.8857 169.491 57.8857 169.489 57.8857C169.332 57.8857 169.195 57.9407 169.082 58.0445C168.974 58.1463 168.898 58.2928 168.858 58.476L167.609 64.2337C167.566 64.4271 167.581 64.5736 167.652 64.6835C167.726 64.7995 167.848 64.8606 168.018 64.8586L172.717 64.8748C172.717 64.8748 172.725 64.8748 172.729 64.8748C172.915 64.8748 173.073 64.8321 173.195 64.7527C173.326 64.6672 173.408 64.5451 173.441 64.3925C173.479 64.2093 173.449 64.0668 173.349 63.9691C173.253 63.8755 173.11 63.8287 172.907 63.8287L168.796 63.8145L169.303 61.478L172.094 61.4861C172.546 61.48 172.815 61.3253 172.885 61.0017C172.926 60.8165 172.887 60.672 172.772 60.5743C172.668 60.4848 172.505 60.438 172.286 60.438L169.532 60.4278L169.857 58.9319L174.004 58.9461C174.192 58.9461 174.358 58.9054 174.483 58.824C174.613 58.7385 174.695 58.6164 174.728 58.4638C174.767 58.2806 174.736 58.1381 174.638 58.0404H174.636Z" fill="white"/>
<path d="M180.889 56.5839C180.783 57.0479 180.629 57.3777 180.431 57.5629C180.233 57.7481 179.931 57.8417 179.53 57.8417L178.229 57.8376C177.834 57.8376 177.579 57.746 177.468 57.569C177.354 57.3838 177.346 57.0479 177.448 56.5737H178.161L178.139 56.6918C178.096 56.8851 178.1 56.9971 178.149 57.0642C178.2 57.1334 178.306 57.164 178.506 57.164L179.632 57.168C179.814 57.168 179.922 57.1436 179.99 57.0846C180.053 57.0317 180.102 56.9218 180.141 56.7406L180.172 56.5859H180.889V56.5839Z" fill="white"/>
<path d="M180.889 56.5839C180.783 57.0479 180.629 57.3777 180.431 57.5629C180.233 57.7481 179.931 57.8417 179.53 57.8417L178.229 57.8376C177.834 57.8376 177.579 57.746 177.468 57.569C177.354 57.3838 177.346 57.0479 177.448 56.5737H178.161L178.139 56.6918C178.096 56.8851 178.1 56.9971 178.149 57.0642C178.2 57.1334 178.306 57.164 178.506 57.164L179.632 57.168C179.814 57.168 179.922 57.1436 179.99 57.0846C180.053 57.0317 180.102 56.9218 180.141 56.7406L180.172 56.5859H180.889V56.5839Z" fill="white"/>
<path d="M181.684 57.9894C181.611 57.8978 181.492 57.851 181.333 57.851C181.333 57.851 181.329 57.851 181.327 57.851C181.131 57.851 180.934 57.9487 180.742 58.138L175.984 63.0368L176.971 58.484C177.02 58.256 176.999 58.0912 176.909 57.9792C176.832 57.8836 176.709 57.8368 176.546 57.8347C176.544 57.8347 176.54 57.8347 176.537 57.8347C176.298 57.8347 175.994 57.9385 175.89 58.4127L174.603 64.3496C174.558 64.5531 174.578 64.7098 174.662 64.8136C174.737 64.9073 174.86 64.9541 175.025 64.9541C175.03 64.9541 175.034 64.9541 175.038 64.9541C175.162 64.9541 175.269 64.9317 175.352 64.8889C175.436 64.8462 175.536 64.7628 175.657 64.6366L180.362 59.7804L179.361 64.3944C179.32 64.5796 179.341 64.7261 179.42 64.8238C179.498 64.9195 179.625 64.9683 179.803 64.9683C179.805 64.9683 179.807 64.9683 179.811 64.9683C180.154 64.9683 180.377 64.7709 180.456 64.4005L181.744 58.4636C181.791 58.2519 181.77 58.0912 181.684 57.9853V57.9894Z" fill="white"/>
</g>
<defs>
<clipPath id="clip0_2127_182">
<rect width="88.3742" height="25.5195" fill="white" transform="translate(414.837 36.7468)"/>
</clipPath>
<clipPath id="clip1_2127_182">
<rect width="93.696" height="46.6022" fill="white" transform="translate(92.177 25.7012)"/>
</clipPath>
</defs>
</svg>
