<svg width="600" height="90" viewBox="0 0 600 90" fill="none" xmlns="http://www.w3.org/2000/svg">
<rect width="600" height="90" fill="#0B206F"/>
<g clip-path="url(#clip0_2478_223)">
<path d="M558.129 35.0319C558.016 35.0319 557.918 35.0252 557.836 35.0085C557.621 34.9716 557.457 34.8678 557.457 34.6234C557.457 34.2283 557.843 34.2182 558.132 34.2182H559.165V35.0352H558.129V35.0319ZM478.685 36.3646V34.5263L478.675 34.2852H478.685L479.674 36.3646H480.124L481.113 34.2852H481.123L481.113 34.5263V36.3613H481.703V33.7561H480.843L479.923 35.6916L479.009 33.7561H478.095V36.3646H478.685ZM483.799 35.2931L484.369 34.1747L484.941 35.2931H483.799ZM482.63 36.3646H483.274L483.595 35.7317H485.146L485.466 36.3646H486.141L484.802 33.7561H483.963L482.63 36.3646ZM488.548 36.4215C488.944 36.4215 489.401 36.3613 489.735 36.1269C489.984 35.9494 490.12 35.7049 490.124 35.3902H489.5C489.5 35.5744 489.401 35.7049 489.247 35.7954C489.05 35.9126 488.79 35.9527 488.565 35.9527C488.282 35.9527 487.935 35.9092 487.71 35.7083C487.386 35.417 487.359 34.7071 487.696 34.4091C487.918 34.2082 488.255 34.1646 488.538 34.1646C488.773 34.1646 489.036 34.2015 489.24 34.3354C489.387 34.4292 489.479 34.543 489.479 34.7272H490.106C490.106 34.4225 489.96 34.1847 489.725 34.0106C489.39 33.7628 488.93 33.6925 488.531 33.6925C488.088 33.6925 487.587 33.7695 487.229 34.0608C486.639 34.5363 486.646 35.5777 487.229 36.0532C487.587 36.3445 488.102 36.4215 488.545 36.4215H488.548ZM492.063 36.3646H492.698V34.2283H493.891V33.7561H490.87V34.2283H492.063V36.3613V36.3646ZM494.839 36.3646H497.576V35.8925H495.452V35.2328H497.293V34.8377H495.452V34.2316H497.532V33.7561H494.839V36.3646ZM499.26 35.0419V34.1981H500.181C500.454 34.1981 500.812 34.235 500.812 34.5999C500.812 35.0018 500.478 35.0386 500.171 35.0386H499.26V35.0419ZM498.633 36.3646H499.26V35.4839H500.27C500.846 35.4839 501.463 35.3299 501.463 34.6133C501.463 33.8968 500.88 33.7561 500.307 33.7561H498.633V36.3646ZM504.088 36.4215C504.582 36.4215 505.302 36.3144 505.561 35.8054C505.643 35.6447 505.643 35.561 505.663 35.3902H505.036C505.036 35.4806 505.019 35.5509 504.968 35.6279C504.797 35.8891 504.385 35.9527 504.105 35.9527C503.826 35.9527 503.474 35.9092 503.249 35.7083C502.99 35.4739 502.942 35.0118 503.055 34.6803C503.137 34.4325 503.338 34.3019 503.57 34.2283C503.706 34.1847 503.877 34.1646 504.081 34.1646C504.316 34.1646 504.579 34.2015 504.784 34.3354C504.93 34.4292 505.022 34.543 505.022 34.7272H505.649C505.649 34.4225 505.503 34.1847 505.268 34.0106C504.934 33.7628 504.473 33.6925 504.074 33.6925C503.785 33.6925 503.529 33.726 503.314 33.7896C502.942 33.9001 502.612 34.1077 502.448 34.4861C502.227 35.0018 502.336 35.6982 502.775 36.0532C503.133 36.3445 503.648 36.4215 504.091 36.4215H504.088ZM507.364 35.2395H507.831L509.004 36.3646H509.843L508.343 34.9649L509.795 33.7561H508.991L507.787 34.7841H507.364V33.7561H506.73V36.3646H507.364V35.2395ZM511.687 35.2931L512.257 34.1747L512.829 35.2931H511.687ZM510.521 36.3646H511.166L511.486 35.7317H513.037L513.358 36.3646H514.033L512.697 33.7561H511.858L510.525 36.3646H510.521ZM516.174 35.0319C515.867 35.0319 515.502 34.9984 515.502 34.5999C515.509 34.2316 515.912 34.2182 516.177 34.2182H517.21V35.0352H516.174V35.0319ZM517.21 36.3646H517.845V33.7561H516.075C515.53 33.7561 514.844 33.8599 514.844 34.5765C514.844 35.0788 515.124 35.3132 515.577 35.4069L514.749 36.3646H515.509L516.266 35.4471H517.214V36.3646H517.21ZM521.158 36.4014C521.66 36.4014 521.885 36.1838 522.14 35.7652L523.374 33.7561H522.703L521.861 35.1558L520.794 33.7561H520.03L521.516 35.6581C521.339 35.946 521.07 35.9695 520.763 35.8925V36.3579C520.893 36.3914 521.025 36.4014 521.158 36.4014ZM524.292 36.3646H524.926V34.2283H526.651V36.3646H527.282V33.7561H524.292V36.3646ZM529.143 35.0419V34.1981H530.064C530.336 34.1981 530.694 34.235 530.694 34.5999C530.694 34.9984 530.367 35.0386 530.053 35.0386H529.143V35.0419ZM528.519 36.3646H529.146V35.4839H530.156C530.759 35.4839 531.349 35.3266 531.349 34.5899C531.349 33.8968 530.739 33.7561 530.193 33.7561H528.519V36.3646ZM532.903 35.2931L533.473 34.1747L534.046 35.2931H532.903ZM531.734 36.3646H532.378L532.699 35.7317H534.25L534.571 36.3646H535.246L533.909 33.7561H533.071L531.738 36.3646H531.734ZM536.787 34.841V34.1914H537.813C538.028 34.1914 538.369 34.1914 538.369 34.4961C538.369 34.8276 538.072 34.8377 537.82 34.8377H536.787V34.841ZM536.787 35.9259V35.1993H537.837C538.092 35.1993 538.498 35.1893 538.498 35.5543C538.498 35.9193 538.12 35.9259 537.847 35.9259H536.787ZM536.166 36.3646H537.997C538.508 36.3646 539.153 36.2876 539.153 35.6112C539.153 35.1893 538.846 35.0252 538.485 34.9884V34.9783C538.781 34.9281 538.999 34.7506 538.999 34.4191C538.999 33.8064 538.454 33.7561 537.983 33.7561H536.166V36.3646ZM541.236 35.0453C541.249 34.7741 541.249 34.4995 541.249 34.2283H542.538V36.3646H543.172V33.7561H540.694V34.2015C540.694 34.5062 540.687 34.764 540.677 34.9716C540.653 35.4136 540.598 35.9494 540.005 35.8556V36.3813C540.895 36.5555 541.198 35.8054 541.236 35.0453ZM544.41 36.3646H547.148V35.8925H545.024V35.2328H546.865V34.8377H545.024V34.2316H547.103V33.7561H544.41V36.3646ZM548.204 36.3646H548.835V35.2462H550.69V36.3646H551.324V33.7561H550.69V34.7774H548.835V33.7561H548.204V36.3646ZM553.206 36.3646L555.037 34.4392V36.3646H555.657V33.7561H555.013L553.182 35.6849V33.7561H552.562V36.3646H553.206ZM559.165 36.3646H559.8V33.7561H558.03C557.485 33.7561 556.799 33.8599 556.799 34.5765C556.799 35.0788 557.079 35.3132 557.532 35.4069L556.704 36.3646H557.464L558.221 35.4471H559.169V36.3646H559.165ZM513.706 39.1338V44.9367H519.805V39.1338H523.105V54.0212H519.805V48.081H513.706V54.0212H510.405V39.1338H513.706ZM506.856 39.1338V42.1307H498.326V44.9367H505.588V48.081L498.326 48.0307V50.9272H506.856V54.0212H495.026V39.1338H506.856ZM538.723 39.1338V42.1307H530.193V44.9367H537.455V48.081L530.193 48.0307V50.9272H538.723V54.0212H526.893V39.1338H538.723ZM491.088 39.1338H478V54.0212H482.886V56.6062H486.186V54.0212H491.085V48.2484H487.785V50.8334H481.3V42.2278H487.785V44.8128H491.085V39.1338H491.088ZM557.505 46.4067L559.8 54.0212H556.319L554.45 48.081H552.384V54.0212H549.084V48.081H547.025L545.153 54.0212H541.672L543.967 46.4067L541.703 39.1338H545.16L546.991 44.9367H549.077V39.1338H552.377V44.9367H554.471L556.302 39.1338H559.755L557.491 46.4067H557.505Z" fill="white"/>
</g>
<path d="M338.538 43.8091H336.227V50.4812H334.577V43.8091H332.277V42.2585H338.538V43.8091Z" fill="white"/>
<path d="M420.189 43.8091H417.879V50.4812H416.225V43.8091H413.923V42.2585H420.184V43.8091H420.187H420.189Z" fill="white"/>
<path d="M344.346 48.7192H340.993L340.354 50.4816H338.642L341.862 42.2617H343.513L346.741 50.4816H344.985L344.346 48.7192ZM343.82 47.2746L342.675 44.1273L341.53 47.2746H343.822H343.82Z" fill="white"/>
<path d="M354.528 46.9211C354.761 47.2578 354.881 47.6733 354.881 48.1675C354.881 48.8953 354.638 49.4628 354.153 49.8702C353.667 50.2748 352.975 50.4812 352.073 50.4812H348.513V42.2585H351.876C352.717 42.2585 353.368 42.4432 353.836 42.8098C354.303 43.1791 354.536 43.7032 354.536 44.3848C354.536 44.7894 354.447 45.1506 354.268 45.4574C354.089 45.7643 353.836 46.0087 353.514 46.1906C353.953 46.34 354.291 46.5817 354.523 46.9184L354.528 46.9211ZM350.174 45.6638H351.73C352.096 45.6638 352.369 45.5796 352.556 45.4113C352.742 45.2402 352.834 44.9931 352.834 44.6672C352.834 44.3414 352.74 44.0997 352.55 43.9286C352.361 43.7548 352.088 43.6706 351.73 43.6706H350.174V45.6665V45.6638ZM353.184 48.0127C353.184 47.3311 352.791 46.9917 352.009 46.9917H350.171V49.0691H352.009C352.793 49.0691 353.184 48.7188 353.184 48.0127Z" fill="white"/>
<path d="M361.561 42.6218C362.031 42.8635 362.394 43.2084 362.649 43.6537C362.905 44.0991 363.033 44.6286 363.033 45.2396C363.033 45.8506 362.905 46.3666 362.649 46.82C362.394 47.2681 362.031 47.613 361.561 47.852C361.09 48.0909 360.533 48.2077 359.894 48.2077H358.44V50.4724H356.769V42.2552H359.894C360.533 42.2552 361.088 42.3774 361.561 42.6191V42.6218ZM360.945 46.2905C361.205 46.0434 361.338 45.6958 361.338 45.2396C361.338 44.7834 361.208 44.4222 360.945 44.1778C360.682 43.9307 360.303 43.8058 359.8 43.8058H358.438V46.6571H359.8C360.301 46.6571 360.682 46.5322 360.945 46.2851V46.2905Z" fill="white"/>
<path d="M411.165 42.6218C411.635 42.8635 411.998 43.2084 412.253 43.6537C412.509 44.0991 412.634 44.6286 412.634 45.2396C412.634 45.8506 412.506 46.3666 412.253 46.82C411.998 47.2681 411.635 47.613 411.165 47.852C410.694 48.0909 410.137 48.2077 409.498 48.2077H408.044V50.4724H406.373V42.2552H409.498C410.137 42.2552 410.692 42.3774 411.165 42.6191V42.6218ZM410.549 46.2905C410.809 46.0434 410.942 45.6958 410.942 45.2396C410.942 44.7834 410.812 44.4222 410.549 44.1778C410.285 43.9307 409.907 43.8058 409.404 43.8058H408.042V46.6571H409.404C409.905 46.6571 410.288 46.5322 410.549 46.2851V46.2905Z" fill="white"/>
<path d="M364.936 42.2617H366.597V47.6167L370.042 42.2617H371.611V50.4816H369.96V45.1375L366.515 50.4816H364.936V42.2617Z" fill="white"/>
<path d="M381.266 50.492L373.398 50.4839C374.448 47.7412 375.499 45.0012 376.551 42.2585H378.213C379.232 45.0012 380.247 47.7466 381.264 50.4893H381.266V50.492ZM375.644 48.9306H378.915L377.326 44.2572L375.644 48.9306Z" fill="white"/>
<path d="M388.262 48.7192H384.909L384.271 50.4816H382.558L385.778 42.2617H387.432L390.659 50.4816H388.904L388.265 48.7192H388.262ZM387.736 47.2746L386.591 44.1273L385.446 47.2746H387.738H387.736Z" fill="white"/>
<path d="M402.689 48.7192H399.336L398.697 50.4816H396.985L400.205 42.2617H401.858L405.086 50.4816H403.33L402.692 48.7192H402.689ZM402.163 47.2746L401.018 44.1273L399.873 47.2746H402.165H402.163Z" fill="white"/>
<path d="M393.82 45.7021C395.343 45.7021 396.58 44.3905 396.58 42.7693C396.58 41.1481 395.346 39.8365 393.82 39.8365C392.294 39.8365 391.06 41.1481 391.06 42.7693C391.06 44.3905 392.297 45.7021 393.82 45.7021Z" fill="white"/>
<g clip-path="url(#clip1_2478_223)">
<path d="M223.794 32.7404C223.274 32.7387 222.85 32.8608 222.525 33.1103C222.2 33.3581 221.986 33.7194 221.886 34.1926L221.563 35.7033C221.462 36.1765 221.52 36.5396 221.74 36.7891C221.959 37.0386 222.328 37.1642 222.848 37.1659C223.369 37.1659 223.791 37.0437 224.117 36.796C224.442 36.5482 224.656 36.1868 224.757 35.7137L225.08 34.2029C225.177 33.747 225.122 33.3856 224.917 33.1172C224.694 32.8677 224.32 32.7421 223.794 32.7404Z" fill="white"/>
<path d="M246.295 33.1048C246.035 33.2459 245.872 33.4748 245.805 33.7879C245.685 34.3506 246.105 34.6328 247.068 34.6362L248.343 34.6396L248.714 32.8983L247.438 32.8949C246.937 32.8949 246.556 32.9637 246.295 33.1048Z" fill="white"/>
<path d="M219.302 32.815C219.108 32.7754 218.807 32.7565 218.395 32.7548L217.045 32.7496L216.735 34.1984L218.084 34.2036C218.701 34.2053 219.111 34.1571 219.31 34.0573C219.508 33.9696 219.637 33.7769 219.7 33.4809C219.742 33.2796 219.735 33.1282 219.678 33.0267C219.62 32.9251 219.494 32.8563 219.3 32.8167L219.302 32.815Z" fill="white"/>
<path d="M214.105 30.001L212.11 39.3895H258.728L260.626 30.001H214.105ZM220.487 33.4202C220.38 33.9243 220.145 34.3046 219.783 34.5645C219.421 34.8243 218.95 34.9534 218.368 34.9516L216.577 34.9465L216.039 37.4605C215.981 37.7324 215.823 37.8684 215.566 37.8684C215.31 37.8684 215.209 37.7307 215.269 37.4588L216.339 32.4479C216.369 32.3051 216.424 32.1967 216.505 32.1193C216.585 32.0418 216.684 32.004 216.801 32.004L218.555 32.0091C219.339 32.0126 219.882 32.1244 220.186 32.3481C220.491 32.5718 220.591 32.928 220.486 33.4202H220.487ZM225.857 34.1756L225.524 35.7398C225.43 36.1786 225.252 36.5606 224.988 36.8892C224.724 37.2179 224.396 37.4691 224 37.6464C223.603 37.8219 223.166 37.9097 222.69 37.9079C222.212 37.9079 221.814 37.8167 221.494 37.6378C221.174 37.4588 220.953 37.2041 220.831 36.8755C220.708 36.5468 220.693 36.1631 220.787 35.7243L221.12 34.1601C221.214 33.7213 221.392 33.3393 221.656 33.0106C221.919 32.6819 222.248 32.4307 222.644 32.2535C223.04 32.0762 223.477 31.9902 223.954 31.9919C224.432 31.9919 224.83 32.0831 225.15 32.2621C225.469 32.441 225.69 32.6957 225.813 33.0244C225.935 33.353 225.951 33.7385 225.857 34.1756ZM231.94 33.1896C231.868 33.5217 231.705 33.6869 231.448 33.6852C231.326 33.6852 231.239 33.6439 231.19 33.5595C231.14 33.4769 231.13 33.3617 231.162 33.2119C231.195 33.064 231.191 32.9642 231.152 32.9142C231.113 32.8643 231.025 32.8385 230.883 32.8385L229.487 32.8334C229.065 32.8334 228.75 32.854 228.545 32.9022C228.339 32.9487 228.184 33.0381 228.084 33.1724C227.982 33.3049 227.9 33.5114 227.842 33.7901L227.342 36.1355C227.281 36.4195 227.276 36.6277 227.323 36.7585C227.373 36.8892 227.502 36.9787 227.711 37.0269C227.922 37.0751 228.266 37.0992 228.744 37.1009L229.973 37.1061C230.115 37.1061 230.215 37.082 230.274 37.0321C230.334 36.9822 230.38 36.8824 230.412 36.7344C230.445 36.5864 230.502 36.4711 230.587 36.3885C230.672 36.3059 230.776 36.2646 230.899 36.2646C231.154 36.2715 231.247 36.4401 231.176 36.7722C231.098 37.1388 230.951 37.4124 230.741 37.5896C230.528 37.7668 230.24 37.8546 229.88 37.8546L228.585 37.8494C227.985 37.8477 227.527 37.7926 227.211 37.6842C226.895 37.5758 226.685 37.4003 226.583 37.1577C226.483 36.9151 226.478 36.5795 226.568 36.1527L227.077 33.7712C227.167 33.3513 227.31 33.0192 227.505 32.7766C227.701 32.534 227.971 32.3584 228.317 32.25C228.662 32.1416 229.106 32.0883 229.652 32.09L231.111 32.0952C231.472 32.0952 231.722 32.1864 231.858 32.3636C231.994 32.5426 232.023 32.8179 231.943 33.1913L231.94 33.1896ZM237.733 33.2102C237.662 33.5423 237.498 33.7075 237.241 33.7058C237.119 33.7058 237.032 33.6645 236.983 33.5802C236.934 33.4976 236.923 33.3823 236.956 33.2326C236.988 33.0846 236.985 32.9848 236.946 32.9349C236.906 32.885 236.818 32.8592 236.677 32.8592L235.28 32.854C234.858 32.854 234.544 32.8747 234.338 32.9229C234.132 32.9693 233.977 33.0588 233.875 33.193C233.773 33.3255 233.692 33.532 233.634 33.8108L233.134 36.1562C233.072 36.4401 233.067 36.6483 233.115 36.7791C233.164 36.9099 233.294 36.9994 233.503 37.0476C233.714 37.0957 234.057 37.1198 234.534 37.1215L235.763 37.125C235.905 37.125 236.005 37.1009 236.064 37.051C236.124 37.0011 236.17 36.9013 236.202 36.7533C236.233 36.6053 236.292 36.49 236.377 36.4074C236.462 36.3248 236.566 36.2835 236.689 36.2835C236.944 36.2904 237.037 36.459 236.966 36.7912C236.888 37.1577 236.741 37.4313 236.531 37.6085C236.318 37.7858 236.03 37.8735 235.67 37.8735L234.375 37.8684C233.775 37.8666 233.317 37.8116 233.001 37.7032C232.685 37.5948 232.475 37.4192 232.373 37.1766C232.273 36.934 232.268 36.5984 232.358 36.1717L232.867 33.7901C232.957 33.3703 233.1 33.0381 233.295 32.7955C233.491 32.5529 233.761 32.3774 234.105 32.269C234.45 32.1605 234.894 32.1072 235.44 32.1089L236.9 32.1141C237.26 32.1141 237.51 32.2053 237.646 32.3825C237.782 32.5615 237.811 32.8368 237.731 33.2102H237.733ZM242.251 37.9544C241.994 37.9544 241.894 37.8202 241.951 37.5535L242.836 33.4133L238.752 37.6946C238.657 37.7944 238.578 37.8615 238.516 37.8942C238.454 37.9269 238.374 37.9424 238.276 37.9424C238.024 37.9424 237.93 37.7995 237.99 37.5139L239.062 32.4944C239.123 32.2036 239.283 32.059 239.539 32.0607C239.796 32.0607 239.892 32.2156 239.827 32.5236L238.954 36.6105L243.083 32.2948C243.231 32.1468 243.378 32.0728 243.525 32.0745C243.77 32.0745 243.862 32.2208 243.799 32.5116L242.727 37.5328C242.666 37.8167 242.508 37.9578 242.251 37.9578V37.9544ZM249.558 32.608L248.5 37.5655C248.442 37.8374 248.287 37.9733 248.036 37.9733C247.767 37.9733 247.661 37.8357 247.719 37.5638L248.184 35.387L246.889 35.3818C246.609 35.3818 246.389 35.4266 246.231 35.5178C246.073 35.609 245.94 35.7639 245.833 35.9824L245.426 36.8084C245.248 37.1577 245.018 37.4364 244.738 37.6464C244.457 37.8563 244.169 37.9596 243.875 37.9596C243.557 37.9596 243.424 37.8339 243.477 37.5844C243.53 37.3418 243.714 37.2214 244.032 37.2214C244.142 37.2214 244.258 37.1697 244.377 37.0665C244.496 36.9632 244.584 36.8583 244.637 36.7516L245.088 35.8465C245.231 35.5746 245.418 35.3474 245.648 35.1633C245.086 34.8949 244.877 34.4251 245.02 33.7557C245.13 33.2343 245.409 32.8351 245.855 32.558C246.301 32.281 246.881 32.1433 247.597 32.1451L249.286 32.1502C249.531 32.1502 249.621 32.3017 249.556 32.6045L249.558 32.608ZM257.372 35.4799C257.35 35.5815 257.306 35.6572 257.239 35.7105C257.173 35.7639 257.088 35.7897 256.984 35.7897L251.888 35.7793C251.79 35.7793 251.718 35.7501 251.672 35.6933C251.626 35.6365 251.613 35.5608 251.633 35.4662C251.655 35.3646 251.699 35.2889 251.769 35.2356C251.839 35.1822 251.922 35.1564 252.021 35.1564L253.657 35.1599C253.674 35.1581 253.693 35.1564 253.71 35.1564L257.117 35.1667C257.221 35.1667 257.296 35.1943 257.338 35.2476C257.382 35.301 257.393 35.3784 257.37 35.4782L257.372 35.4799Z" fill="white"/>
<path d="M238.965 45.8446L240.612 45.8498L240.2 43.8848L238.965 45.8446Z" fill="white"/>
<path d="M235.935 43.3987C235.746 43.3609 235.447 43.3402 235.042 43.3385L233.748 43.3351L233.469 44.6445L234.734 44.6479C235.34 44.6514 235.741 44.6032 235.93 44.5086C236.11 44.4277 236.224 44.2556 236.283 43.9786C236.323 43.7962 236.317 43.6603 236.268 43.576C236.221 43.4934 236.11 43.4332 235.937 43.3987H235.935Z" fill="white"/>
<path d="M220.218 40.364L218.202 49.8472H256.458L258.474 40.364H220.218ZM226.955 43.6473C226.858 44.0998 226.602 44.1979 226.401 44.1979C226.399 44.1979 226.397 44.1979 226.396 44.1979C226.248 44.1979 226.142 44.1446 226.079 44.0379C226.02 43.9398 226.008 43.8056 226.044 43.6404C226.081 43.4631 226.056 43.4115 226.047 43.3995C226.039 43.3874 225.998 43.3513 225.833 43.3496L224.438 43.3444C224.021 43.3444 223.712 43.365 223.511 43.4115C223.322 43.4545 223.179 43.5371 223.089 43.6559C222.994 43.7798 222.917 43.9776 222.859 44.2461L222.359 46.5915C222.302 46.8617 222.295 47.0578 222.339 47.1748C222.378 47.2815 222.492 47.3572 222.677 47.4003C222.882 47.4467 223.223 47.4708 223.695 47.4725L224.924 47.476C225.043 47.476 225.135 47.4553 225.181 47.4175C225.214 47.3899 225.259 47.3228 225.295 47.1594C225.329 46.9976 225.396 46.8703 225.489 46.7773C225.586 46.6827 225.705 46.6345 225.843 46.6345C225.845 46.6345 225.846 46.6345 225.848 46.6345C225.981 46.638 226.079 46.681 226.142 46.7619C226.221 46.8634 226.238 47.0165 226.193 47.2265C226.112 47.6085 225.957 47.8958 225.734 48.0817C225.513 48.2658 225.215 48.3587 224.85 48.3622C224.843 48.3622 224.836 48.3622 224.829 48.3622L223.535 48.3587C222.931 48.357 222.461 48.3002 222.138 48.1901C221.803 48.0765 221.579 47.8855 221.47 47.624C221.364 47.3676 221.358 47.0165 221.451 46.5777L221.96 44.1962C222.051 43.766 222.199 43.4218 222.402 43.1723C222.604 42.9211 222.888 42.7352 223.246 42.6234C223.596 42.5133 224.05 42.4599 224.601 42.4599L226.061 42.4651C226.442 42.4651 226.712 42.5666 226.862 42.7611C227.01 42.9555 227.044 43.2532 226.96 43.6455L226.955 43.6473ZM231.553 43.3719L230.304 43.3685L229.32 47.9784C229.291 48.1127 229.219 48.2262 229.107 48.3123C228.998 48.3966 228.869 48.4396 228.723 48.4413C228.719 48.4413 228.717 48.4413 228.716 48.4413C228.561 48.4413 228.445 48.3966 228.374 48.3088C228.302 48.2211 228.282 48.0989 228.314 47.9475L229.292 43.3668L228.056 43.3633C227.896 43.3633 227.775 43.3203 227.697 43.2377C227.615 43.1534 227.588 43.0398 227.619 42.9039C227.646 42.7748 227.716 42.6699 227.823 42.5907C227.928 42.515 228.059 42.4754 228.216 42.4771L231.715 42.4892C231.902 42.4892 232.028 42.5356 232.101 42.6268C232.164 42.706 232.181 42.8144 232.152 42.9486C232.111 43.1431 231.975 43.3719 231.565 43.3754C231.561 43.3754 231.558 43.3754 231.555 43.3754L231.553 43.3719ZM235.014 45.5349L233.279 45.5298L232.754 47.9888C232.689 48.2899 232.504 48.4499 232.22 48.4517C232.218 48.4517 232.215 48.4517 232.213 48.4517C232.068 48.4517 231.961 48.4104 231.897 48.3295C231.828 48.2434 231.811 48.1195 231.847 47.9578L232.917 42.9469C232.949 42.792 233.012 42.6681 233.104 42.5821C233.198 42.4926 233.322 42.4496 233.448 42.4479L235.201 42.453C236.008 42.4565 236.555 42.5718 236.873 42.8058C237.2 43.045 237.311 43.4304 237.2 43.9484C237.09 44.4681 236.843 44.8673 236.469 45.1357C236.096 45.4024 235.599 45.5401 235.014 45.5349ZM241.993 48.1884C241.971 48.2882 241.908 48.3759 241.805 48.4517C241.704 48.5239 241.594 48.5601 241.478 48.5618C241.476 48.5618 241.475 48.5618 241.473 48.5618C241.25 48.5618 241.111 48.4431 241.071 48.2194L240.796 46.7378L238.411 46.7292L237.489 48.2314C237.35 48.4413 237.178 48.5463 236.981 48.548C236.981 48.548 236.977 48.548 236.976 48.548C236.853 48.548 236.753 48.5084 236.676 48.4293C236.598 48.3467 236.569 48.2486 236.591 48.1436C236.612 48.0473 236.639 47.9664 236.673 47.9027L240.034 42.515L240.956 42.5184L240.966 42.5735L242.015 47.9389C242.022 48.0129 242.015 48.092 241.995 48.1884H241.993ZM247.115 48.4998C247.115 48.4998 247.111 48.4998 247.108 48.4998C246.965 48.4998 246.861 48.4585 246.797 48.3777C246.727 48.2899 246.71 48.1591 246.747 47.987L247.234 45.707L244.179 45.6967L243.686 48.006C243.619 48.3192 243.432 48.4844 243.148 48.4861C243.147 48.4861 243.145 48.4861 243.141 48.4861C242.999 48.4861 242.895 48.4448 242.83 48.3639C242.76 48.2761 242.743 48.1436 242.781 47.9733L243.852 42.9538C243.937 42.5528 244.182 42.4651 244.375 42.4651C244.375 42.4651 244.378 42.4651 244.38 42.4651C244.529 42.4651 244.64 42.5081 244.706 42.5924C244.778 42.6819 244.795 42.8144 244.759 42.9865L244.37 44.8122L247.424 44.8225L247.821 42.9675C247.907 42.5666 248.161 42.4788 248.362 42.4788C248.363 42.4788 248.365 42.4788 248.367 42.4788C248.508 42.4788 248.612 42.5201 248.676 42.601C248.748 42.6905 248.765 42.8247 248.726 43.0002L247.654 48.0215C247.588 48.3346 247.401 48.4998 247.117 48.5016L247.115 48.4998ZM253.764 48.2262C253.743 48.326 253.679 48.4155 253.575 48.4895C253.475 48.5618 253.364 48.5996 253.247 48.5996C253.247 48.5996 253.245 48.5996 253.243 48.5996C253.019 48.5996 252.881 48.4792 252.842 48.2555L252.566 46.7739L250.182 46.7653L249.258 48.2675C249.117 48.4792 248.947 48.5842 248.744 48.5842C248.622 48.5842 248.52 48.5429 248.445 48.4654C248.367 48.3828 248.338 48.2847 248.36 48.1798C248.38 48.0869 248.408 48.006 248.442 47.9406L251.803 42.5528L252.723 42.5563L252.733 42.6113L253.784 47.9767C253.791 48.049 253.784 48.1299 253.764 48.228V48.2262Z" fill="white"/>
<path d="M250.741 45.8832L252.385 45.8883L251.974 43.925L250.741 45.8832Z" fill="white"/>
<path d="M245.666 53.2598C245.657 53.2598 245.647 53.2598 245.639 53.2598C245.149 53.2632 244.746 53.3819 244.44 53.6142C244.13 53.8499 243.923 54.201 243.826 54.6552L243.502 56.1659C243.405 56.615 243.46 56.9592 243.664 57.1915C243.868 57.4255 244.225 57.5442 244.722 57.5459C245.22 57.5442 245.637 57.4272 245.948 57.1897C246.259 56.9523 246.465 56.603 246.562 56.147L246.885 54.6363C246.977 54.2027 246.928 53.8586 246.736 53.6091C246.532 53.3802 246.169 53.2598 245.666 53.2598Z" fill="white"/>
<path d="M208.31 53.1364C208.302 53.1364 208.291 53.1364 208.283 53.1364C207.793 53.1398 207.39 53.2585 207.084 53.4908C206.773 53.7283 206.567 54.0775 206.47 54.5318L206.147 56.0425C206.051 56.4916 206.104 56.8358 206.308 57.0663C206.512 57.3003 206.868 57.4191 207.366 57.4208C207.868 57.4173 208.281 57.3021 208.592 57.0663C208.904 56.8289 209.11 56.4796 209.206 56.0236L209.53 54.5129C209.621 54.081 209.572 53.7351 209.38 53.4856C209.176 53.2568 208.815 53.1381 208.31 53.1364Z" fill="white"/>
<path d="M226.201 53.1953C226.193 53.1953 226.184 53.1953 226.176 53.1953C225.684 53.1988 225.281 53.3175 224.975 53.5498C224.664 53.7855 224.458 54.1365 224.361 54.5908L224.038 56.1015C223.943 56.5506 223.997 56.8947 224.2 57.1253C224.404 57.3576 224.761 57.478 225.257 57.478C225.761 57.478 226.172 57.3593 226.484 57.1219C226.795 56.8844 227.001 56.5351 227.098 56.0809L227.421 54.5701C227.513 54.1383 227.463 53.7924 227.271 53.5429C227.067 53.3141 226.707 53.1936 226.201 53.1919V53.1953Z" fill="white"/>
<path d="M197.995 50.61L196 59.9985H272.007L274.002 50.61H197.995ZM266.989 51.3981H267.582L267.564 51.4979C267.528 51.6614 267.531 51.756 267.572 51.8128C267.615 51.8713 267.703 51.8971 267.87 51.8971L268.807 51.9006C268.958 51.9006 269.049 51.8799 269.105 51.83C269.157 51.7853 269.198 51.6924 269.231 51.5392L269.256 51.4084H269.853C269.765 51.8025 269.637 52.0812 269.472 52.2378C269.307 52.3944 269.055 52.4736 268.722 52.4736L267.638 52.4701C267.31 52.4701 267.098 52.3927 267.006 52.243C266.909 52.0864 266.904 51.8025 266.989 51.4015V51.3981ZM204.46 53.8881C204.377 54.2752 204.214 54.5867 203.971 54.8173C204.357 55.1098 204.477 55.6106 204.33 56.3075L204.294 56.4761C204.2 56.9115 204.047 57.2591 203.835 57.5103C203.622 57.7615 203.324 57.9456 202.95 58.0541C202.6 58.1556 202.14 58.2089 201.582 58.2124C201.554 58.2124 201.525 58.2124 201.496 58.2124L199.494 58.2055C199.353 58.2055 199.25 58.1556 199.189 58.0558C199.131 57.9646 199.12 57.8355 199.154 57.6755L200.193 52.8057C200.225 52.6508 200.288 52.5269 200.38 52.4409C200.473 52.3531 200.587 52.3084 200.718 52.3067H200.722L202.448 52.3118C202.999 52.3136 203.435 52.3669 203.746 52.4701C204.069 52.5786 204.29 52.7506 204.406 52.9829C204.52 53.2135 204.537 53.5164 204.459 53.8863L204.46 53.8881ZM210.444 54.5213L210.111 56.0855C210.016 56.5329 209.83 56.9287 209.562 57.2642C209.293 57.5998 208.951 57.8613 208.548 58.042C208.153 58.2175 207.714 58.3087 207.242 58.3105C207.231 58.3105 207.219 58.3105 207.209 58.3105C206.721 58.3087 206.308 58.2141 205.979 58.0317C205.646 57.8458 205.413 57.5774 205.284 57.2333C205.156 56.8925 205.141 56.4916 205.238 56.0425L205.571 54.4783C205.666 54.0309 205.852 53.6351 206.121 53.2996C206.389 52.964 206.731 52.7024 207.134 52.5218C207.537 52.3428 207.988 52.255 208.473 52.2533C208.959 52.255 209.374 52.3497 209.703 52.5321C210.036 52.7179 210.269 52.9864 210.398 53.3305C210.526 53.6712 210.541 54.0722 210.444 54.5213ZM216.279 54.0068C216.17 54.5179 215.896 54.9326 215.464 55.2389C215.756 55.5847 215.848 56.0253 215.736 56.5484C215.666 56.8719 215.52 57.1679 215.301 57.426C215.081 57.6841 214.807 57.8889 214.484 58.0334C214.169 58.1745 213.829 58.2468 213.474 58.2485C213.467 58.2485 213.458 58.2485 213.452 58.2485L211.644 58.2416C211.229 58.2416 210.951 58.1315 210.82 57.9181C210.691 57.7082 210.681 57.364 210.786 56.8667C210.876 56.4469 211.142 56.3643 211.336 56.3591C211.475 56.3591 211.577 56.4004 211.64 56.4813C211.715 56.5742 211.73 56.7119 211.691 56.8977L211.657 57.0577C211.615 57.2573 211.64 57.3038 211.647 57.3124C211.652 57.3193 211.689 57.3571 211.866 57.3571L213.547 57.3623C213.547 57.3623 213.555 57.3623 213.561 57.3623C213.87 57.3623 214.149 57.2711 214.394 57.0973C214.642 56.9201 214.789 56.7084 214.845 56.452C214.896 56.2146 214.845 56.0287 214.688 55.8807C214.528 55.731 214.29 55.6536 213.979 55.6519H213.19C212.987 55.6484 212.853 55.602 212.776 55.5056C212.713 55.4264 212.696 55.3215 212.725 55.1907C212.766 54.9962 212.907 54.7674 213.339 54.7639C213.343 54.7639 213.346 54.7639 213.35 54.7639H214.139C214.476 54.7639 214.746 54.6985 214.967 54.5626C215.185 54.4267 215.314 54.2546 215.36 54.036C215.411 53.8003 215.355 53.6127 215.192 53.4665C215.023 53.315 214.777 53.2376 214.459 53.2376L212.778 53.2324C212.611 53.2324 212.547 53.2617 212.518 53.2858C212.487 53.3116 212.445 53.3787 212.406 53.5577L212.372 53.7177C212.283 54.1341 212.028 54.2236 211.827 54.2253C211.826 54.2253 211.824 54.2253 211.822 54.2253C211.683 54.2253 211.581 54.184 211.518 54.1032C211.443 54.0102 211.428 53.8743 211.467 53.6867C211.57 53.2015 211.729 52.8522 211.94 52.6525C212.152 52.4495 212.469 52.3549 212.875 52.348L214.683 52.3549C215.061 52.3549 215.384 52.4254 215.646 52.5613C215.913 52.699 216.105 52.8969 216.216 53.1481C216.326 53.3976 216.348 53.6885 216.28 54.0085L216.279 54.0068ZM222.713 52.8367L221.642 57.8562C221.575 58.1694 221.39 58.3345 221.104 58.3363C221.102 58.3363 221.099 58.3363 221.097 58.3363C220.958 58.3363 220.856 58.295 220.793 58.2141C220.718 58.1212 220.703 57.9852 220.742 57.7977L221.574 53.8984L219.927 55.6484C219.813 55.7396 219.692 55.7861 219.568 55.7861C219.568 55.7861 219.567 55.7861 219.565 55.7861C219.427 55.7861 219.316 55.7345 219.235 55.6346L218.33 53.8622L217.486 57.8132C217.396 58.2347 217.143 58.3277 216.937 58.3208C216.794 58.3208 216.69 58.2795 216.626 58.1986C216.556 58.1108 216.539 57.9801 216.575 57.808L217.646 52.7885C217.731 52.3875 217.976 52.2998 218.168 52.2998C218.17 52.2998 218.172 52.2998 218.173 52.2998C218.354 52.2998 218.49 52.391 218.58 52.5699L219.742 54.7915L221.876 52.5562C222.036 52.3961 222.198 52.3153 222.356 52.3136C222.356 52.3136 222.358 52.3136 222.359 52.3136C222.496 52.3136 222.598 52.3549 222.661 52.4323C222.732 52.5218 222.749 52.656 222.71 52.8332L222.713 52.8367ZM227.449 57.3227C227.18 57.6583 226.838 57.9198 226.435 58.1005C226.04 58.276 225.6 58.3655 225.127 58.369C225.117 58.369 225.106 58.369 225.096 58.369C224.608 58.3672 224.195 58.2726 223.867 58.0885C223.533 57.9026 223.298 57.6342 223.171 57.29C223.043 56.9493 223.028 56.5484 223.125 56.0993L223.458 54.5351C223.554 54.0877 223.739 53.6919 224.008 53.3563C224.276 53.0208 224.617 52.7592 225.021 52.5786C225.425 52.3996 225.875 52.3136 226.36 52.3101C226.848 52.3118 227.262 52.4065 227.59 52.5889C227.923 52.7747 228.156 53.0432 228.286 53.3873C228.413 53.728 228.428 54.129 228.331 54.5781L227.998 56.1423C227.903 56.5897 227.717 56.9855 227.449 57.321V57.3227ZM235.758 53.5043C235.635 53.5147 235.486 53.6145 235.316 53.8003C235.122 53.993 234.877 54.2804 234.584 54.6555C234.349 54.9481 234.142 55.1838 233.97 55.3576C234.113 55.4385 234.242 55.5434 234.351 55.6673C234.484 55.8171 234.574 55.9822 234.622 56.1578C234.725 56.4882 234.78 56.822 234.785 57.1438C234.781 57.2745 234.792 57.3692 234.815 57.4311C234.827 57.4604 234.844 57.4948 234.866 57.4948C235.025 57.4948 235.149 57.5361 235.234 57.6153C235.326 57.6996 235.36 57.8166 235.331 57.9525C235.29 58.147 235.147 58.3758 234.7 58.3793C234.696 58.3793 234.691 58.3793 234.688 58.3793C234.397 58.3793 234.157 58.2932 233.979 58.1281C233.8 57.9629 233.696 57.7288 233.669 57.4329C233.655 57.3227 233.647 57.2419 233.647 57.1868C233.613 56.9321 233.577 56.7239 233.54 56.5759C233.504 56.4365 233.438 56.3092 233.342 56.1991C233.208 56.0683 232.999 55.9995 232.725 55.9977H232.716L232.308 57.9061C232.279 58.0403 232.21 58.1521 232.101 58.2382C231.994 58.3225 231.871 58.3672 231.735 58.3672C231.735 58.3672 231.732 58.3672 231.73 58.3672C231.59 58.3672 231.485 58.3173 231.419 58.221C231.352 58.1281 231.335 58.011 231.364 57.8734L231.766 55.9943C231.519 55.996 231.291 56.0614 231.09 56.187C230.883 56.3161 230.709 56.5071 230.573 56.7549C230.481 56.9166 230.356 57.1489 230.196 57.4466C230.032 57.7357 229.828 57.9611 229.588 58.1194C229.349 58.2778 229.083 58.3586 228.801 58.3604C228.798 58.3604 228.794 58.3604 228.791 58.3604C228.626 58.3604 228.5 58.3191 228.417 58.2382C228.355 58.1797 228.289 58.073 228.326 57.9026C228.367 57.7082 228.508 57.4793 228.939 57.4759C228.944 57.4759 228.947 57.4759 228.951 57.4759C228.951 57.4759 228.969 57.4759 229.014 57.4329C229.051 57.3967 229.088 57.3434 229.126 57.2728C229.277 56.9992 229.388 56.7927 229.463 56.6361C229.587 56.3763 229.779 56.1165 230.032 55.8635C230.265 55.6312 230.517 55.4522 230.786 55.3318C230.687 55.1666 230.585 54.9343 230.471 54.6228C230.332 54.2546 230.211 53.9621 230.109 53.7573C230.022 53.5852 229.924 53.494 229.816 53.4837C229.658 53.4768 229.536 53.4355 229.454 53.3563C229.395 53.2996 229.332 53.1946 229.369 53.0156C229.41 52.8263 229.543 52.6009 229.946 52.5975C229.949 52.5975 229.952 52.5975 229.956 52.5975C230.209 52.5975 230.444 52.6818 230.655 52.8453C230.862 53.007 231.041 53.2428 231.182 53.5474C231.277 53.7607 231.383 54.0102 231.495 54.2907C231.596 54.5609 231.687 54.7674 231.771 54.9033C231.835 55.0375 231.898 55.1098 231.954 55.1115L232.383 53.1051C232.415 52.9537 232.483 52.8332 232.586 52.7472C232.688 52.6594 232.807 52.6112 232.948 52.6164C233.098 52.6164 233.208 52.6594 233.274 52.7437C233.346 52.8332 233.363 52.9657 233.327 53.1378L232.907 55.1081C232.95 55.0926 233.031 55.0427 233.181 54.8964C233.302 54.776 233.487 54.5678 233.732 54.2804C234.004 53.9517 234.242 53.6747 234.441 53.463C234.642 53.2479 234.866 53.0569 235.105 52.8952C235.392 52.7111 235.666 52.6181 235.907 52.6199C236.071 52.6199 236.197 52.6611 236.282 52.742C236.372 52.8281 236.401 52.9416 236.372 53.0793C236.345 53.2101 236.275 53.3133 236.166 53.389C236.062 53.4613 235.924 53.5009 235.758 53.5061V53.5043ZM242.179 52.9003L241.107 57.9198C241.041 58.233 240.855 58.3982 240.57 58.3999C240.568 58.3999 240.566 58.3999 240.563 58.3999C240.42 58.3999 240.315 58.3586 240.252 58.2778C240.182 58.19 240.165 58.0592 240.201 57.8871L240.687 55.6071L237.632 55.5968L237.139 57.9044C237.073 58.2175 236.885 58.3827 236.601 58.3844C236.6 58.3844 236.598 58.3844 236.596 58.3844C236.453 58.3844 236.348 58.3432 236.285 58.2623C236.215 58.1745 236.198 58.0437 236.236 57.8717L237.307 52.8522C237.394 52.4461 237.642 52.3583 237.835 52.3635C237.984 52.3635 238.095 52.4065 238.161 52.4908C238.233 52.5803 238.25 52.7128 238.212 52.8849L237.823 54.7106L240.878 54.7209L241.274 52.8659C241.361 52.465 241.614 52.3789 241.815 52.3772C241.817 52.3772 241.818 52.3772 241.82 52.3772C241.961 52.3772 242.065 52.4185 242.129 52.4994C242.201 52.5889 242.218 52.7231 242.179 52.8986V52.9003ZM247.797 54.6435L247.464 56.2077C247.368 56.6551 247.183 57.0508 246.914 57.3864C246.645 57.7202 246.305 57.9818 245.9 58.1642C245.506 58.3397 245.067 58.4292 244.596 58.4326C244.586 58.4326 244.574 58.4326 244.564 58.4326C244.077 58.4326 243.662 58.338 243.334 58.1539C243 57.968 242.766 57.6979 242.638 57.3554C242.512 57.0147 242.495 56.6155 242.59 56.1646L242.924 54.6005C243.019 54.1531 243.204 53.7573 243.473 53.4217C243.742 53.0862 244.084 52.8246 244.487 52.6457C244.888 52.4667 245.341 52.3824 245.826 52.3772C246.312 52.3772 246.725 52.4719 247.055 52.656C247.389 52.8418 247.624 53.1103 247.751 53.4544C247.879 53.7951 247.894 54.1961 247.797 54.6452V54.6435ZM253.88 53.6592C253.783 54.1118 253.526 54.2098 253.325 54.2116C253.325 54.2116 253.322 54.2116 253.32 54.2116C253.172 54.2116 253.065 54.1565 253.004 54.0515C252.944 53.9535 252.932 53.8192 252.968 53.654C253.005 53.4768 252.98 53.4252 252.971 53.4131C252.963 53.4011 252.922 53.3649 252.757 53.3632L251.36 53.3581C250.945 53.3581 250.634 53.3787 250.433 53.4252C250.243 53.4682 250.104 53.5491 250.012 53.6695C249.916 53.7934 249.84 53.9913 249.782 54.258L249.282 56.6034C249.224 56.8736 249.217 57.0698 249.262 57.1868C249.301 57.2935 249.415 57.3692 249.6 57.4122C249.804 57.4587 250.146 57.4828 250.617 57.4845L251.849 57.4879C251.968 57.4862 252.06 57.469 252.106 57.4294C252.138 57.4019 252.184 57.3348 252.219 57.1713C252.253 57.0113 252.318 56.8822 252.413 56.7893C252.512 56.6946 252.64 56.6516 252.772 56.6465C252.905 56.6499 253.004 56.6929 253.067 56.7738C253.145 56.8753 253.162 57.0285 253.116 57.2384C253.034 57.6204 252.879 57.9078 252.657 58.0936C252.435 58.2778 252.14 58.3707 251.774 58.3741C251.767 58.3741 251.76 58.3741 251.753 58.3741L250.459 58.3707C249.853 58.369 249.384 58.3122 249.063 58.202C248.727 58.0885 248.503 57.8975 248.394 57.6376C248.287 57.383 248.282 57.0302 248.375 56.5914L248.884 54.2098C248.976 53.7797 249.124 53.4355 249.326 53.186C249.53 52.933 249.814 52.7489 250.17 52.6371C250.52 52.5269 250.976 52.4701 251.524 52.4736L252.983 52.4787C253.364 52.4787 253.635 52.5803 253.784 52.7747C253.934 52.9692 253.966 53.2669 253.883 53.6592H253.88ZM258.477 53.3839L257.229 53.3804L256.244 57.9904C256.215 58.1263 256.144 58.2382 256.031 58.3242C255.922 58.4085 255.791 58.4533 255.642 58.4533C255.642 58.4533 255.64 58.4533 255.638 58.4533C255.482 58.4533 255.368 58.4085 255.296 58.3208C255.225 58.233 255.205 58.1108 255.237 57.9594L256.215 53.3787L254.978 53.3753C254.819 53.3753 254.698 53.3323 254.619 53.2497C254.563 53.1911 254.504 53.0862 254.54 52.9158C254.567 52.7868 254.637 52.6818 254.744 52.6026C254.849 52.5269 254.983 52.4908 255.137 52.4891L258.635 52.5011C258.823 52.5011 258.948 52.5476 259.022 52.6388C259.084 52.7179 259.101 52.8263 259.073 52.9606C259.032 53.155 258.896 53.3839 258.486 53.3873C258.482 53.3873 258.479 53.3873 258.476 53.3873L258.477 53.3839ZM264.512 53.2978C264.408 53.3667 264.271 53.3994 264.114 53.4011L260.661 53.389L260.391 54.6538L262.684 54.6624C262.866 54.6624 263.002 54.702 263.088 54.7777C263.184 54.8603 263.214 54.9825 263.182 55.1391C263.124 55.4109 262.9 55.5434 262.524 55.5486L260.2 55.5417L259.778 57.5172L263.201 57.5292C263.367 57.5292 263.488 57.5688 263.568 57.648C263.651 57.7306 263.677 57.851 263.645 58.0059C263.617 58.1367 263.548 58.2382 263.441 58.3105C263.339 58.3793 263.208 58.4137 263.053 58.4137C263.049 58.4137 263.046 58.4137 263.043 58.4137L259.13 58.3999C258.989 58.3999 258.887 58.35 258.826 58.2519C258.768 58.159 258.756 58.0334 258.79 57.8717L259.829 53.0036C259.863 52.8487 259.925 52.7248 260.017 52.6388C260.11 52.551 260.224 52.5063 260.355 52.5046C260.357 52.5046 260.358 52.5046 260.36 52.5046L264.272 52.5166C264.437 52.5166 264.56 52.5579 264.64 52.6353C264.723 52.7179 264.749 52.8384 264.715 52.9933C264.687 53.124 264.618 53.2256 264.51 53.2978H264.512ZM270.561 52.995L269.489 58.0145C269.423 58.3277 269.236 58.4929 268.952 58.4946C268.95 58.4946 268.948 58.4946 268.945 58.4946C268.799 58.4946 268.691 58.4533 268.627 58.3724C268.56 58.2881 268.543 58.1659 268.577 58.0093L269.411 54.1083L265.494 58.2141C265.393 58.3208 265.31 58.3913 265.24 58.4275C265.17 58.4636 265.082 58.4825 264.978 58.4825C264.975 58.4825 264.971 58.4825 264.968 58.4825C264.83 58.4825 264.728 58.443 264.665 58.3638C264.596 58.276 264.578 58.1435 264.616 57.9715L265.688 52.952C265.774 52.551 266.028 52.4633 266.227 52.4633C266.228 52.4633 266.232 52.4633 266.234 52.4633C266.371 52.4633 266.473 52.5046 266.536 52.5854C266.611 52.6801 266.628 52.8195 266.587 53.0122L265.766 56.8616L269.727 52.7197C269.887 52.5596 270.05 52.4787 270.214 52.477C270.214 52.477 270.217 52.477 270.219 52.477C270.351 52.477 270.45 52.5166 270.511 52.594C270.583 52.6835 270.598 52.8195 270.561 52.9984V52.995Z" fill="white"/>
<path d="M203.141 55.5147C202.961 55.4682 202.663 55.4441 202.255 55.4424L200.547 55.4373L200.144 57.3248L201.656 57.33C202.121 57.33 202.469 57.3093 202.69 57.2629C202.901 57.2199 203.058 57.1407 203.153 57.0254C203.252 56.9067 203.332 56.7123 203.388 56.4473L203.418 56.3045C203.474 56.0412 203.483 55.8485 203.44 55.7349C203.401 55.63 203.304 55.5577 203.139 55.5147H203.141Z" fill="white"/>
<path d="M203.18 53.3054C202.986 53.2641 202.684 53.2434 202.281 53.2417L201.013 53.2383L200.734 54.5477L201.971 54.5511C202.376 54.5511 202.689 54.5339 202.898 54.4926C203.1 54.4548 203.252 54.3894 203.345 54.2982C203.439 54.2087 203.507 54.0676 203.546 53.8818C203.585 53.6994 203.578 53.5669 203.527 53.4843C203.476 53.4035 203.359 53.3432 203.18 53.3054Z" fill="white"/>
</g>
<g clip-path="url(#clip2_2478_223)">
<path d="M51.5377 30.5282V33.0748H42.9467V41.5459H40.4V30.5282H51.5377Z" fill="white"/>
<path d="M40.4 52.7332V48.0592H42.9467V52.7332C42.9468 54.1226 44.0928 55.2765 45.5376 55.2766H48.7409C49.8223 55.2767 50.8736 55.6163 51.7468 56.2405L51.9191 56.3696L51.9197 56.3702L54.0193 58.01L56.4192 56.2315C57.2531 55.6117 58.2654 55.2793 59.303 55.2793H62.4679C63.9128 55.2792 65.0588 54.1248 65.0588 52.7353V33.0748H58.162V30.5282H67.6055V52.7353C67.6055 55.5608 65.2899 57.8263 62.4679 57.8265H59.303C58.8081 57.8265 58.3288 57.985 57.9374 58.2762L57.9358 58.2778L54.8739 60.5475L54.8733 60.547C54.341 60.9551 53.5816 60.9465 53.0612 60.4942L50.3524 58.3775V58.378C49.8937 58.0203 49.3259 57.8238 48.7409 57.8238H45.5376C42.7157 57.8237 40.4002 55.5585 40.4 52.7332Z" fill="white"/>
<path d="M49.9595 34.4458H55.3083V29.162H49.9595V34.4458Z" fill="white"/>
<path d="M39.0016 45.0461H44.3505V39.7624H39.0016V45.0461Z" fill="white"/>
<path d="M49.3215 39.9613L52.778 50.4706C52.8241 50.6074 53.0164 50.6023 53.0549 50.463L54.9011 45.1058L60.1089 43.6392C60.2499 43.6037 60.2576 43.4061 60.1192 43.3606L49.5163 39.7663C49.3958 39.7257 49.283 39.8397 49.324 39.9613H49.3215Z" fill="white"/>
<path d="M49.1089 39.9878C49.0503 39.7166 49.3063 39.4686 49.5847 39.5621H49.5853L60.1885 43.1564H60.1879C60.5298 43.2704 60.5094 43.755 60.1666 43.8462L60.1671 43.8467L55.068 45.2822L53.2585 50.5334L53.2575 50.5328C53.1539 50.8651 52.6859 50.872 52.5736 50.5392L52.5731 50.5376L49.1169 40.0283C49.1126 40.015 49.1106 40.0014 49.1089 39.9878ZM52.9166 50.2021L54.6972 45.0357L54.7202 44.9888C54.7483 44.9452 54.7918 44.9125 54.8429 44.8981L59.8359 43.492L49.5639 40.0097L52.9166 50.2021Z" fill="white"/>
</g>
<path d="M131.057 55.7934V48.4131H132.903V51.2677H136.089V48.4131H137.936V55.7934H136.089V52.7995H132.903V55.7934H131.057Z" fill="white"/>
<path d="M125.973 55.9605C125.296 55.9605 124.671 55.8259 124.098 55.5567C123.534 55.2782 123.083 54.8558 122.745 54.2895C122.407 53.7232 122.237 53.0177 122.237 52.1729V51.8944C122.237 51.096 122.407 50.4276 122.745 49.8891C123.083 49.3414 123.534 48.9329 124.098 48.6637C124.671 48.3852 125.296 48.246 125.973 48.246C126.659 48.246 127.284 48.3852 127.848 48.6637C128.412 48.9329 128.863 49.3414 129.201 49.8891C129.54 50.4276 129.709 51.096 129.709 51.8944V52.1729C129.709 52.9991 129.54 53.6953 129.201 54.2616C128.863 54.8279 128.412 55.255 127.848 55.5427C127.284 55.8213 126.659 55.9605 125.973 55.9605ZM125.973 54.4009C126.33 54.4009 126.645 54.322 126.918 54.1642C127.199 53.9971 127.42 53.7464 127.58 53.4122C127.74 53.078 127.82 52.6649 127.82 52.1729V51.8944C127.82 51.4395 127.74 51.0589 127.58 50.7525C127.42 50.4461 127.199 50.2141 126.918 50.0562C126.645 49.8891 126.33 49.8056 125.973 49.8056C125.616 49.8056 125.296 49.8891 125.014 50.0562C124.742 50.2141 124.526 50.4461 124.366 50.7525C124.206 51.0589 124.126 51.4395 124.126 51.8944V52.1729C124.126 52.6742 124.206 53.0919 124.366 53.4261C124.526 53.751 124.742 53.9971 125.014 54.1642C125.296 54.322 125.616 54.4009 125.973 54.4009Z" fill="white"/>
<path d="M115.474 58.5784V55.9605C114.186 55.9605 113.209 55.6356 112.542 54.9857C111.875 54.3266 111.541 53.389 111.541 52.1728V51.8943C111.541 50.7153 111.875 49.8149 112.542 49.1929C113.209 48.5616 114.186 48.2459 115.474 48.2459V46.0458H117.335V48.2459C118.613 48.2459 119.585 48.5616 120.253 49.1929C120.929 49.8149 121.268 50.7107 121.268 51.8804V52.1728C121.268 53.3983 120.929 54.3359 120.253 54.9857C119.585 55.6356 118.613 55.9605 117.335 55.9605V58.5784H115.474ZM119.379 52.1728V51.8943C119.379 51.1981 119.209 50.6782 118.871 50.3347C118.542 49.982 118.011 49.8056 117.278 49.8056V54.4009C118.011 54.4009 118.542 54.2152 118.871 53.8439C119.209 53.4632 119.379 52.9062 119.379 52.1728ZM113.43 51.8804V52.1728C113.43 52.9062 113.599 53.4632 113.937 53.8439C114.276 54.2152 114.807 54.4009 115.53 54.4009V49.8056C114.797 49.8056 114.262 49.982 113.923 50.3347C113.594 50.6875 113.43 51.2027 113.43 51.8804Z" fill="white"/>
<path d="M106.027 55.9605C105.491 55.9605 105.035 55.863 104.659 55.6681C104.283 55.4638 103.997 55.1853 103.799 54.8326C103.602 54.4798 103.503 54.0806 103.503 53.635C103.503 52.8923 103.724 52.3353 104.166 51.964C104.617 51.5926 105.289 51.407 106.182 51.407H108.409V51.0589C108.409 50.5761 108.296 50.2373 108.071 50.0423C107.854 49.8474 107.507 49.7499 107.027 49.7499C106.605 49.7499 106.299 49.8242 106.111 49.9727C105.923 50.1119 105.815 50.2883 105.787 50.5018H103.926C103.954 50.0748 104.091 49.6942 104.335 49.36C104.589 49.0165 104.946 48.7473 105.406 48.5523C105.876 48.3481 106.44 48.246 107.098 48.246C107.737 48.246 108.291 48.3388 108.761 48.5245C109.241 48.7101 109.612 49.0119 109.875 49.4296C110.138 49.8381 110.27 50.3904 110.27 51.0867V53.9135C110.27 54.3034 110.274 54.6469 110.284 54.944C110.303 55.2318 110.331 55.5149 110.368 55.7934H108.634C108.597 55.5892 108.573 55.436 108.564 55.3339C108.564 55.2225 108.564 55.06 108.564 54.8465C108.367 55.1436 108.057 55.4035 107.634 55.6263C107.211 55.8491 106.675 55.9605 106.027 55.9605ZM106.605 54.5401C106.905 54.5401 107.192 54.4891 107.464 54.387C107.746 54.2756 107.972 54.1085 108.141 53.8857C108.32 53.6536 108.409 53.3611 108.409 53.0084V52.6602H106.534C106.177 52.6602 105.895 52.7438 105.688 52.9109C105.491 53.0687 105.392 53.2869 105.392 53.5654C105.392 53.8624 105.496 54.0992 105.702 54.2756C105.909 54.4519 106.21 54.5401 106.605 54.5401Z" fill="white"/>
<path d="M95.1265 58.5784V48.4131H96.8463V49.4992C97.0342 49.165 97.3302 48.8726 97.7344 48.622C98.1385 48.3713 98.6506 48.246 99.2709 48.246C100.267 48.246 101.042 48.5523 101.597 49.165C102.161 49.7685 102.443 50.6782 102.443 51.8944V52.1729C102.443 53.0177 102.311 53.7232 102.048 54.2895C101.794 54.8465 101.432 55.2642 100.962 55.5427C100.493 55.8213 99.9287 55.9605 99.2709 55.9605C98.7634 55.9605 98.3123 55.8537 97.9176 55.6402C97.5323 55.4174 97.2175 55.1296 96.9731 54.7769V58.5784H95.1265ZM98.8339 54.4009C99.3226 54.4009 99.7314 54.2199 100.06 53.8578C100.389 53.4865 100.554 52.9248 100.554 52.1729V51.8944C100.554 51.1981 100.394 50.6782 100.074 50.3347C99.7643 49.982 99.3508 49.8056 98.8339 49.8056C98.4862 49.8056 98.1667 49.8752 97.8753 50.0145C97.5934 50.1444 97.3725 50.344 97.2128 50.6132C97.053 50.8732 96.9731 51.2074 96.9731 51.6159V52.4514C96.9731 52.8877 97.0483 53.2544 97.1987 53.5515C97.3584 53.8392 97.5793 54.0528 97.8612 54.192C98.1432 54.3313 98.4674 54.4009 98.8339 54.4009Z" fill="white"/>
<path d="M89.2454 55.9605C88.7097 55.9605 88.2539 55.863 87.878 55.6681C87.5021 55.4638 87.2154 55.1853 87.0181 54.8326C86.8207 54.4798 86.722 54.0806 86.722 53.635C86.722 52.8923 86.9429 52.3353 87.3846 51.964C87.8357 51.5926 88.5076 51.407 89.4004 51.407H91.6277V51.0589C91.6277 50.5761 91.5149 50.2373 91.2894 50.0423C91.0732 49.8474 90.7255 49.7499 90.2462 49.7499C89.8233 49.7499 89.5179 49.8242 89.3299 49.9727C89.142 50.1119 89.0339 50.2883 89.0057 50.5018H87.1449C87.1731 50.0748 87.3094 49.6942 87.5537 49.36C87.8075 49.0165 88.1646 48.7473 88.6251 48.5523C89.095 48.3481 89.6589 48.246 90.3167 48.246C90.9557 48.246 91.5102 48.3388 91.9801 48.5245C92.4594 48.7101 92.8306 49.0119 93.0937 49.4296C93.3569 49.8381 93.4885 50.3904 93.4885 51.0867V53.9135C93.4885 54.3034 93.4932 54.6469 93.5025 54.944C93.5213 55.2318 93.5495 55.5149 93.5871 55.7934H91.8532C91.8156 55.5892 91.7922 55.436 91.7828 55.3339C91.7828 55.2225 91.7828 55.06 91.7828 54.8465C91.5854 55.1436 91.2753 55.4035 90.8524 55.6263C90.4295 55.8491 89.8938 55.9605 89.2454 55.9605ZM89.8233 54.5401C90.124 54.5401 90.4107 54.4891 90.6832 54.387C90.9651 54.2756 91.1907 54.1085 91.3599 53.8857C91.5384 53.6536 91.6277 53.3611 91.6277 53.0084V52.6602H89.7528C89.3957 52.6602 89.1138 52.7438 88.907 52.9109C88.7097 53.0687 88.611 53.2869 88.611 53.5654C88.611 53.8624 88.7144 54.0992 88.9211 54.2756C89.1279 54.4519 89.4286 54.5401 89.8233 54.5401Z" fill="white"/>
<path d="M76.8723 55.7934V48.4131H79.0573L81.1295 52.3957L83.2017 48.4131H85.3021V55.7934H83.54V50.9892L81.7216 54.3313H80.4529L78.6344 50.9892V55.7934H76.8723Z" fill="white"/>
<path d="M120.415 42.6894V35.3091H122.262V38.1637H125.448V35.3091H127.294V42.6894H125.448V39.6955H122.262V42.6894H120.415Z" fill="white"/>
<path d="M111.811 42.6895V35.3091H113.658V40.0437L116.985 35.3091H118.69V42.6895H116.844V37.9549L113.517 42.6895H111.811ZM115.265 34.5432C114.428 34.5432 113.817 34.3669 113.432 34.0141C113.056 33.6613 112.868 33.1414 112.868 32.4545H114.518C114.518 32.8165 114.579 33.0718 114.701 33.2204C114.823 33.3596 115.006 33.4292 115.251 33.4292C115.514 33.4292 115.711 33.3596 115.843 33.2204C115.974 33.0718 116.04 32.8165 116.04 32.4545H117.661C117.661 33.1414 117.469 33.6613 117.083 34.0141C116.698 34.3669 116.092 34.5432 115.265 34.5432Z" fill="white"/>
<path d="M105.93 42.8565C105.394 42.8565 104.939 42.759 104.563 42.5641C104.187 42.3598 103.9 42.0813 103.703 41.7286C103.505 41.3758 103.407 40.9766 103.407 40.531C103.407 39.7883 103.628 39.2313 104.069 38.86C104.52 38.4886 105.192 38.303 106.085 38.303H108.312V37.9548C108.312 37.4721 108.2 37.1333 107.974 36.9383C107.758 36.7434 107.41 36.6459 106.931 36.6459C106.508 36.6459 106.203 36.7202 106.015 36.8687C105.827 37.0079 105.719 37.1843 105.69 37.3978H103.83C103.858 36.9708 103.994 36.5902 104.238 36.256C104.492 35.9125 104.849 35.6433 105.31 35.4483C105.78 35.2441 106.344 35.142 107.001 35.142C107.64 35.142 108.195 35.2348 108.665 35.4205C109.144 35.6061 109.515 35.9079 109.778 36.3256C110.042 36.7341 110.173 37.2864 110.173 37.9827V40.8095C110.173 41.1994 110.178 41.5429 110.187 41.84C110.206 42.1278 110.234 42.4109 110.272 42.6894H108.538C108.5 42.4852 108.477 42.332 108.467 42.2299C108.467 42.1185 108.467 41.956 108.467 41.7425C108.27 42.0396 107.96 42.2995 107.537 42.5223C107.114 42.7451 106.578 42.8565 105.93 42.8565ZM106.508 41.4361C106.809 41.4361 107.095 41.3851 107.368 41.283C107.65 41.1716 107.875 41.0045 108.045 40.7817C108.223 40.5496 108.312 40.2571 108.312 39.9044V39.5562H106.438C106.08 39.5562 105.798 39.6398 105.592 39.8069C105.394 39.9647 105.296 40.1829 105.296 40.4614C105.296 40.7584 105.399 40.9952 105.606 41.1716C105.813 41.3479 106.113 41.4361 106.508 41.4361Z" fill="white"/>
<path d="M98.9812 42.8565C98.267 42.8565 97.6608 42.759 97.1628 42.5641C96.6741 42.3691 96.2982 42.0813 96.035 41.7007C95.7813 41.3201 95.6356 40.8652 95.598 40.336H97.487C97.5058 40.531 97.5622 40.7027 97.6561 40.8513C97.7595 40.9998 97.9146 41.1112 98.1213 41.1855C98.3375 41.2597 98.6241 41.2969 98.9812 41.2969C99.5357 41.2969 99.921 41.218 100.137 41.0602C100.363 40.8931 100.475 40.6935 100.475 40.4614C100.475 40.1829 100.381 39.974 100.194 39.8347C100.015 39.6955 99.6814 39.6259 99.1927 39.6259H98.0508V38.2612H99.094C99.4511 38.2612 99.7237 38.1869 99.9116 38.0384C100.1 37.8899 100.194 37.6949 100.194 37.4535C100.194 37.24 100.1 37.0636 99.9116 36.9244C99.733 36.7759 99.4229 36.7016 98.9812 36.7016C98.5207 36.7016 98.1871 36.7805 97.9804 36.9383C97.7736 37.0868 97.6561 37.305 97.6279 37.5928H95.739C95.7766 37.0636 95.9175 36.618 96.1619 36.256C96.4156 35.8939 96.7774 35.6201 97.2473 35.4344C97.7266 35.2394 98.3046 35.142 98.9812 35.142C100.071 35.142 100.861 35.3416 101.349 35.7407C101.838 36.1307 102.082 36.6505 102.082 37.3004C102.082 37.6531 101.989 37.9688 101.801 38.2473C101.622 38.5258 101.335 38.73 100.941 38.86C101.476 38.99 101.848 39.2035 102.054 39.5005C102.261 39.7883 102.364 40.1318 102.364 40.531C102.364 40.9766 102.242 41.3758 101.998 41.7286C101.754 42.0813 101.382 42.3598 100.884 42.5641C100.386 42.759 99.7518 42.8565 98.9812 42.8565Z" fill="white"/>
<path d="M87.431 42.6894V35.3091H89.2777V40.0436L92.6045 35.3091H94.3102V42.6894H92.4635V37.9549L89.1367 42.6894H87.431Z" fill="white"/>
<path d="M76.2944 44.4998V40.9628H77.394C77.5349 40.6379 77.6524 40.248 77.7464 39.7931C77.8498 39.3382 77.9296 38.8508 77.986 38.3309C78.0424 37.8111 78.08 37.2819 78.0988 36.7435C78.127 36.1957 78.1411 35.6666 78.1411 35.156V32.9419H85.0767V40.9628H86.148V44.4998H84.2873V42.6895H78.1834V44.4998H76.2944ZM79.438 40.9628H82.9763V34.6686H80.1428V35.4345C80.1428 36.7156 80.077 37.7971 79.9455 38.6791C79.8233 39.5517 79.6541 40.3129 79.438 40.9628Z" fill="white"/>
<defs>
<clipPath id="clip0_2478_223">
<rect width="81.7995" height="22.9104" fill="white" transform="translate(478 33.6967)"/>
</clipPath>
<clipPath id="clip1_2478_223">
<rect width="78" height="30" fill="white" transform="translate(196 30.0006)"/>
</clipPath>
<clipPath id="clip2_2478_223">
<rect width="28.6233" height="31.6821" fill="white" transform="translate(39 29.1593)"/>
</clipPath>
</defs>
</svg>
